<?xml version="1.0" standalone="no"?>
<!DOCTYPE svg PUBLIC "-//W3C//DTD SVG 1.1//EN" "http://www.w3.org/Graphics/SVG/1.1/DTD/svg11.dtd" >
<!--
2013-9-30: Created.
-->
<svg>
<metadata>
Created by iconfont
</metadata>
<defs>

<font id="cyicon" horiz-adv-x="1024" >
  <font-face
    font-family="cyicon"
    font-weight="500"
    font-stretch="normal"
    units-per-em="1024"
    ascent="896"
    descent="-128"
  />
    <missing-glyph />
    
    <glyph glyph-name="huanyingmoshi" unicode="&#59047;" d="M1093.077856 769.758633c25.603169 0 46.3899-20.913479 46.3899-46.389899v-679.37121c0-25.603169-20.913479-46.3899-46.3899-46.389899h-679.371209c-25.603169 0-46.3899 20.913479-46.3899 46.389899v679.37121c0 25.603169 20.913479 46.3899 46.3899 46.389899h679.371209m0 68.06387h-679.371209c-63.247432 0-114.580517-51.333086-114.580518-114.580518v-679.371209c0-63.247432 51.333086-114.580517 114.580518-114.580517h679.371209c63.247432 0 114.580517 51.333086 114.580518 114.580517v679.371209c0 63.37418-51.333086 114.580517-114.580518 114.580518z m0 0M491.53014-2.519124l94.047283 100.638198 66.162644-64.768412 108.116351 108.116351 141.831415-143.859388H491.53014z m0 0M563.016215 221.825473c-18.885506 0-34.095309 15.209803-34.095309 34.095309V610.942938c0 18.885506 15.209803 34.095309 34.095309 34.095309 18.885506 0 34.095309-15.209803 34.095309-34.095309V255.920782c0-18.885506-15.209803-34.095309-34.095309-34.095309z m190.376037 0c-18.885506 0-34.095309 15.209803-34.095309 34.095309V610.942938c0 18.885506 15.209803 34.095309 34.095309 34.095309 18.885506 0 34.095309-15.209803 34.095308-34.095309V255.920782c0-18.885506-15.209803-34.095309-34.095308-34.095309z m0 0M753.392252 399.273177H563.016215c-18.885506 0-34.095309 15.209803-34.095309 34.095309 0 18.885506 15.209803 34.095309 34.095309 34.095309h190.376037c18.885506 0 34.095309-15.209803 34.095308-34.095309 0-18.758757-15.209803-34.095309-34.095308-34.095309z m190.376036-177.447704c-18.885506 0-34.095309 15.209803-34.095309 34.095309V462.013616c0 18.885506 15.209803 34.095309 34.095309 34.095308 18.885506 0 34.095309-15.209803 34.095309-34.095308V255.920782c-0.126748-18.885506-15.336552-34.095309-34.095309-34.095309z m0 320.673351c-18.885506 0-34.095309 15.209803-34.095309 34.095309v34.348805c0 18.885506 15.209803 34.095309 34.095309 34.095309 18.885506 0 34.095309-15.209803 34.095309-34.095309V576.594133c-0.126748-18.885506-15.336552-34.095309-34.095309-34.095309z m0 0"  horiz-adv-x="1509" />

    
    <glyph glyph-name="jiankong" unicode="&#59342;" d="M108.8 236.8V377.6L0 396.8v-448l108.8 38.4V140.8h172.8L358.4 256l-96 57.6-44.8-76.8H108.8zM1024 377.6L243.2 889.6h-89.6L32 697.6v-64l697.6-448 57.6 6.4L1024 377.6zM32 595.2v-102.4l704-441.6h64l32 32 32 96s-89.6-64-96-64c-32 25.6-736 480-736 480z"  horiz-adv-x="1024" />

    
    <glyph glyph-name="beifen" unicode="&#58944;" d="M795.504 879.404H463.819c-44.2975 0-81.6773-29.8553-93.3281-70.3905h354.258v-215.298h214.813v-463.971c0-14.6849-12.0149-26.6998-26.6998-26.6998H737.371v-70.3905h175.491c53.5211 0 97.0903 43.5693 97.0903 97.0903v535.211L795.504 879.404Zm-0.242725-215.298v116.022l116.022-116.022h-116.022ZM628.266 147.22000000000003c-12.2576-5.70405-24.8795-10.6799-37.7439-14.9277v-149.519c0-14.6849-12.0149-26.6998-26.6998-26.6998h-449.043c-14.6849 0-26.6998 12.0149-26.6998 26.6998V635.3430000000001c0 14.6849 12.0149 26.6998 26.6998 26.6998h260.93v-215.298h214.813v-185.443c27.4281 14.8063 51.3365 35.1952 70.3905 59.3465V517.985L446.464 732.433H114.779c-53.5211 0-97.0903-43.5693-97.0903-97.0903v-652.569c0-53.5211 43.5693-97.0903 97.0903-97.0903h449.043c53.5211 0 97.0903 43.5693 97.0903 97.0903V164.57600000000002c-10.5586-6.31088-21.4813-12.1363-32.6466-17.3549ZM446.1 633.279l116.022-116.022h-116.022v116.022ZM803.757 460.701c0 19.4181-15.7772 35.1952-35.1952 35.1952s-35.1952-15.7772-35.1952-35.1952c0-128.887-97.6969-235.444-223.065-249.279v71.24l-175.126-101.095 175.126-101.095v60.1961c75.3664 6.43223 145.271 38.8362 199.278 92.8427 60.8029 60.6815 94.1775 141.388 94.1775 227.191Z"  horiz-adv-x="1024" />

    
    <glyph glyph-name="monitor" unicode="&#58955;" d="M496.101053 117.38273700000002a363.358316 363.358316 0 1 1 0 726.716631 363.358316 363.358316 0 0 1 0-726.716631z m0-51.900632a415.258947 415.258947 0 1 0 0 830.517895 415.258947 415.258947 0 1 0 0-830.517895z m0 181.625263a142.767158 142.767158 0 1 1 0 285.534316 142.767158 142.767158 0 0 1 0-285.480421z m0-51.846736a194.667789 194.667789 0 1 0 0 389.281684 194.667789 194.667789 0 0 0 0-389.281684z m-64.889264 506.071579a64.889263 64.889263 0 1 1 129.778527 0 64.889263 64.889263 0 0 1-129.778527 0zM223.663158-103.20842100000004a25.977263 25.977263 0 1 0 0 51.900632h545.037474a25.977263 25.977263 0 1 0 0-51.900632H223.609263z m384.970105 207.279158a25.977263 25.977263 0 0 0 48.828632 17.785263l66.991158-184.212211a25.977263 25.977263 0 1 0-48.774737-17.785263l-67.045053 184.212211z m-225.495579 0a25.977263 25.977263 0 0 1-48.774737 17.785263l-66.128842-181.840842a25.977263 25.977263 0 1 1 48.774737-17.785263l66.128842 181.840842z"  horiz-adv-x="1024" />

    
    <glyph glyph-name="jiankong1" unicode="&#59246;" d="M103.888246 10.565825a36.122478 36.122478 0 0 1 0-72.244956h816.079018a36.122478 36.122478 0 0 1 0 72.244956H548.050233V165.31452H838.041484c65.02046 0 118.048257 52.883307 118.048258 118.048257V711.630873c0 65.02046-53.027797 118.048257-118.048258 118.048258H185.814026c-65.02046 0-118.048257-52.883307-118.048258-118.048258V283.362777c0-65.02046 53.027797-118.048257 118.048258-118.048257h289.991251v-154.748695H103.888246z m81.92578 746.86835H838.041484c25.285734 0 45.803302-20.517567 45.803302-45.803302v-210.66629H544.582475l-23.985325 52.160858c-0.14449 0.28898-0.28898 0.43347-0.28898 0.57796-0.57796 1.155919-1.300409 2.311839-2.022859 3.467757-0.57796 0.866939-1.011429 1.878369-1.733879 2.600819-0.72245 0.866939-1.589389 1.733879-2.311838 2.600818-0.866939 0.866939-1.589389 1.878369-2.600819 2.600819-0.72245 0.57796-1.589389 1.155919-2.311838 1.733879-1.155919 0.866939-2.311839 1.733879-3.467758 2.456328a1.993961 1.993961 0 0 1-0.57796 0.43347c-0.72245 0.43347-1.444899 0.57796-2.022859 0.866939l-3.901227 1.733879-3.034288 0.86694c-1.300409 0.28898-2.456328 0.57796-3.756738 0.722449-1.155919 0.14449-2.167349 0.14449-3.323268 0.28898-1.300409 0-2.456328 0.14449-3.756738 0-1.155919 0-2.311839-0.28898-3.467758-0.43347-1.155919-0.14449-2.311839-0.28898-3.467757-0.577959-1.300409-0.28898-2.600818-0.866939-3.901228-1.30041-0.72245-0.28898-1.444899-0.43347-2.167349-0.722449-0.14449-0.14449-0.28898-0.28898-0.577959-0.28898-1.300409-0.57796-2.600818-1.444899-3.901228-2.311838-0.72245-0.43347-1.589389-0.866939-2.311839-1.4449-1.011429-0.72245-1.878369-1.589389-2.745308-2.456328-0.866939-0.72245-1.733879-1.444899-2.456328-2.311839-0.72245-0.72245-1.155919-1.589389-1.878369-2.456328-0.866939-1.155919-1.733879-2.167349-2.311839-3.467758-0.14449-0.14449-0.28898-0.28898-0.433469-0.57796l-43.202484-77.735572-50.860449 137.843375c-0.28898 0.72245-0.57796 1.155919-0.866939 1.878369-0.57796 1.155919-1.011429 2.311839-1.733879 3.467758-0.57796 1.011429-1.155919 1.878369-1.733879 2.745308-0.72245 1.011429-1.444899 2.022859-2.311839 2.889799-0.72245 0.866939-1.589389 1.589389-2.311838 2.456328-0.866939 0.866939-1.733879 1.589389-2.745308 2.456329-1.011429 0.72245-1.878369 1.444899-2.889799 2.022858-0.57796 0.43347-1.155919 0.866939-1.878368 1.30041-0.43347 0.28898-0.866939 0.28898-1.30041 0.577959-1.011429 0.57796-2.022859 0.866939-3.178778 1.300409l-3.467758 1.30041c-1.011429 0.28898-2.022859 0.43347-3.034288 0.577959-1.300409 0.28898-2.600818 0.43347-3.756737 0.57796-1.011429 0.14449-2.022859 0-3.178778 0-1.300409 0-2.600818 0-3.756738-0.14449-1.011429-0.14449-2.167349-0.43347-3.178778-0.57796-1.300409-0.28898-2.456328-0.57796-3.756738-1.011429-0.43347-0.14449-0.866939-0.14449-1.155919-0.28898-0.72245-0.28898-1.300409-0.57796-1.878369-0.866939-1.155919-0.43347-2.311839-1.011429-3.323268-1.589389-1.011429-0.57796-2.022859-1.155919-2.889798-1.878369-1.011429-0.72245-1.878369-1.300409-2.745308-2.167349s-1.733879-1.589389-2.600819-2.600818c-0.72245-0.866939-1.444899-1.589389-2.167349-2.456329-0.866939-1.011429-1.589389-2.167349-2.167348-3.178778-0.28898-0.57796-0.866939-1.011429-1.15592-1.733879l-65.742909-119.782136H140.010724V711.630873c0 25.285734 20.662057 45.803302 45.803302 45.803302zM140.010724 283.362777V428.719627h112.268661c2.889798 0 5.779596 0.43347 8.380415 1.15592 0.72245 0.14449 1.444899 0.43347 2.167348 0.722449 2.022859 0.72245 4.045718 1.444899 5.924087 2.456329 0.72245 0.43347 1.444899 0.72245 2.167348 1.155919 2.456328 1.444899 4.768167 3.178778 6.791026 5.201637 0.14449 0.14449 0.28898 0.43347 0.43347 0.57796 1.878369 2.022859 3.467758 4.190207 4.912657 6.502046 0.14449 0.28898 0.43347 0.57796 0.722449 0.866939l37.856357 69.066178 50.571469-137.265416c0.28898-0.866939 0.72245-1.589389 1.155919-2.456329 0.28898-0.72245 0.57796-1.300409 0.86694-2.022858 0.866939-1.733879 1.878369-3.323268 3.034288-4.912657 0.14449-0.14449 0.14449-0.28898 0.28898-0.43347 1.300409-1.733879 2.889798-3.178778 4.334697-4.623677a64.211316 64.211316 0 0 1 5.346127-3.901228c0.28898-0.14449 0.57796-0.43347 1.011429-0.722449 0.14449-0.14449 0.43347-0.14449 0.57796-0.28898 2.311839-1.300409 4.768167-2.167349 7.368985-2.889798l1.589389-0.43347c2.600818-0.57796 5.201637-1.011429 7.946945-1.011429 2.745308 0 5.490617 0.43347 8.235925 1.155919 0.72245 0.14449 1.444899 0.28898 2.167349 0.577959 0.72245 0.14449 1.444899 0.28898 2.167349 0.57796 1.444899 0.57796 2.745308 1.300409 4.045717 2.022859 0.57796 0.28898 1.300409 0.57796 1.878369 0.866939 2.456328 1.444899 4.768167 3.178778 6.791026 5.201637 0.43347 0.43347 0.72245 0.866939 1.155919 1.300409 1.589389 1.733879 3.034288 3.756738 4.334697 5.779597 0.28898 0.43347 0.57796 0.72245 0.86694 1.011429l46.814731 84.093128 3.901228-8.380414c0.14449-0.28898 0.43347-0.57796 0.577959-0.86694 1.155919-2.456328 2.745308-4.768167 4.479188-6.791026 0.43347-0.57796 0.866939-1.155919 1.444899-1.733879 2.022859-2.167349 4.334697-4.190207 6.791026-5.779596 0.43347-0.28898 1.011429-0.43347 1.444899-0.72245 2.167349-1.300409 4.479187-2.311839 6.935515-3.178778 0.72245-0.28898 1.444899-0.43347 2.167349-0.722449 2.889798-0.72245 5.924086-1.300409 8.958375-1.300409H883.266827V283.362777c0-25.285734-20.517567-45.803302-45.803302-45.803302h-651.649499c-25.141245 0-45.803302 20.517567-45.803302 45.803302z"  horiz-adv-x="1024" />

    
    <glyph glyph-name="zhineng2" unicode="&#58964;" d="M512 877.056a364.544 364.544 0 0 1-369.152-358.4 358.4 358.4 0 0 1 182.784-309.76c5.461-3.84 8.533-10.24 8.192-16.896h5.632v-153.6a161.792 161.792 0 0 1 166.912-153.6h12.8A161.792 161.792 0 0 1 686.08 40.96l-2.56 153.6h6.144a19.456 19.456 0 0 0 8.192 16.896 358.4 358.4 0 0 1 182.784 309.76A364.544 364.544 0 0 1 512 877.056z m121.856-726.528v-34.816h-243.2v34.816h243.2z m0-125.44H392.192a92.16 92.16 0 0 0 0 10.24v29.696h244.224v-30.208c0.17-3.413 0.17-6.827 0-10.24l-2.56 0.512z m-113.664-94.72H506.88a119.808 119.808 0 0 0-93.184 44.032H614.4a119.808 119.808 0 0 0-94.208-44.032zM660.48 274.432a94.208 94.208 0 0 1-46.08-72.704h-76.8V366.08l119.296 130.048a25.6 25.6 0 0 1-18.944 41.472H386.048a25.6 25.6 0 0 1-18.944-43.008L486.4 366.08v-164.352h-76.8a94.208 94.208 0 0 1-45.568 72.704 282.112 282.112 0 0 0-144.384 243.2A287.744 287.744 0 0 0 512 800.256a287.744 287.744 0 0 0 292.352-282.624 282.112 282.112 0 0 0-143.872-243.2zM512 413.696L444.416 486.4h135.168L512 413.696z"  horiz-adv-x="1024" />

    
    <glyph glyph-name="nuli" unicode="&#59053;" d="M874.944 883.424l-0.032-147.84 139.776-0.768-91.904-134.848A461.984 461.984 0 0 0 976 384c0-256.256-207.744-464-464-464S48 127.744 48 384 255.744 848 512 848c89.056 0 172.224-25.088 242.88-68.576l120.064 104zM329.024 480H90.688a433.408 433.408 0 0 1-10.688-96c0-238.592 193.408-432 432-432S944 145.408 944 384c0 32.96-3.712 65.12-10.688 96H695.36l-18.88-107.744a39.616 39.616 0 0 0-45.792-32.192h-0.128a39.808 39.808 0 0 0-32.224 46.08L614.72 480h-205.12l16.448-93.856a39.808 39.808 0 0 0-28.288-45.12l-3.968-0.96a39.616 39.616 0 0 0-45.92 32.192L329.024 480z m304.736-210.144a40.224 40.224 0 0 0 40-40 39.488 39.488 0 0 0-39.68-39.68 275.776 275.776 0 0 1-196.928-80.96 39.84 39.84 0 0 0-56.352 0.192 39.84 39.84 0 0 0-0.224 56.352 354.848 354.848 0 0 0 253.184 104.096zM512 816C329.92 816 174.176 703.36 110.592 544h802.816C849.824 703.36 694.048 816 512 816z"  horiz-adv-x="1024" />

    
    <glyph glyph-name="zhineng" unicode="&#58988;" d="M554.240692 116.911273c-7.978185 0-16.032352 0-24.067523 0.246944-139.770197 2.678391-271.049326 28.284564-369.655889 72.050606-104.761163 46.520415-161.748196 109.206151-160.437494 176.45085 1.234719 65.402118 57.727865 124.630642 158.955831 166.877029 94.978389 39.567997 221.356633 61.375035 356.092975 61.375035 7.99718 0 16.089339 0 24.143506-0.246944 139.694214-2.678391 270.935352-28.246573 369.598902-72.050606 104.723171-46.520415 161.710205-109.206151 160.437494-176.45085-1.27271-65.402118-57.727865-124.630642-158.993822-166.877029-94.864415-39.567997-221.318641-61.375035-355.997997-61.375035z m-39.169087 431.942716c-128.904669 0-249.185301-20.572319-338.71193-57.917821-82.555215-34.439164-130.424323-80.370713-131.279129-126.150296-0.911793-47.299238 47.831117-96.270095 133.672584-134.39442 93.268778-41.372586 218.450294-65.592075 352.179866-68.194483 7.712245-0.170961 15.55746-0.208952 23.269705-0.208953 128.866678 0 249.147309 20.572319 338.673938 57.87983 82.555215 34.439164 130.386332 80.4277 131.241138 126.150296 0.949784 47.299238-47.793125 96.270095-133.672584 134.39442-93.230786 41.429573-218.317324 65.649062-352.141874 68.194483q-11.64435 0.246944-23.269705 0.246944zM758.311258-110.751925c-59.28551 0-131.279129 32.387631-208.173632 93.686683a1051.961638 1051.961638 0 0 0-214.347228 241.017159c-77.008478 116.59547-130.424323 239.21257-150.293802 345.246443-21.104198 112.68236-1.899568 195.123602 54.308643 232.241156a126.663179 126.663179 0 0 0 71.138813 20.116423c59.28551 0 131.241138-32.425622 208.135641-93.686683a1050.460979 1050.460979 0 0 0 214.328232-241.131133c77.046469-116.59547 130.424323-239.21257 150.293802-345.246443 21.104198-112.644369 1.899568-195.123602-54.308643-232.22216a126.39724 126.39724 0 0 0-71.100821-20.078432z m-447.34821 887.288108a82.175302 82.175302 0 0 1-46.311463-12.651122c-39.454023-26.06207-52.181127-93.971618-34.857068-186.328603 18.805721-100.297178 69.79012-217.006623 143.607323-328.625225A1006.428998 1006.428998 0 0 1 578.213238 18.209732c67.852561-54.061699 131.811008-83.865917 180.09802-83.865918a82.460237 82.460237 0 0 1 46.273471 12.651122c39.492014 26.06207 52.181127 93.971618 34.89506 186.328603-18.805721 100.297178-69.828111 217.006623-143.607323 328.625225a1005.688167 1005.688167 0 0 1-204.849389 230.721501c-67.81457 54.09969-131.773016 83.865917-180.060029 83.865918zM336.873152-127.829039a122.6171 122.6171 0 0 0-59.969355 14.778637c-58.886601 32.425622-84.853692 113.062274-72.943402 227.055336 11.245441 107.306584 54.517595 233.874784 121.876268 356.282932 73.532269 133.615597 168.149739 247.133767 259.613928 311.529115a22.528874 22.528874 0 0 0 25.910104-36.87061c-86.05042-60.520229-175.710019-168.567644-246.032018-296.332573-64.585304-117.279314-105.919899-237.768898-116.538483-339.243809-9.763778-93.439739 8.377094-160.095572 49.787672-182.928377s107.477545-2.412451 181.161778 55.828297c80.047786 63.293598 159.696663 162.735971 224.148998 280.015286 70.284008 127.840911 113.556162 261.380526 118.647003 366.464615a22.528874 22.528874 0 1 0 45.00076-2.184503c-5.413768-111.694585-50.661473-252.39557-124.174745-386.011167-67.358673-122.408147-151.072625-226.694418-235.717365-293.654183-62.438793-49.388762-121.097446-74.710001-170.809134-74.71zM769.632682 782.728774z m-113.271226 0A113.290222 113.290222 0 1 1 769.632682 896a113.271226 113.271226 0 0 1-113.176248-113.271226z"  horiz-adv-x="1069" />

    
    <glyph glyph-name="icon111" unicode="&#58945;" d="M841.66679-0.179846c-0.620124 0.921999-1.24127 1.853208-1.859347 2.783393 14.554484 13.31526 29.112038 26.635637 43.666522 39.950897 39.993876 49.728588 83.267449 94.177939 101.270475 166.307723-2.480494 2.163269-4.956895 4.332678-7.432273 6.503111-9.912767-21.057595-19.824511-42.12133-29.734208-63.177901-28.991288-49.463552-76.284407-115.877147-125.421524-144.004765-9.719362 8.264221 1.054005 24.00574-4.646833 37.161365-4.02671 4.641717-8.052396 9.29162-12.079106 13.933337-14.832823 28.27088-15.570627 65.802682-14.863523 105.913215-28.236088 11.227716-29.642111 39.361473-39.950897 67.827805l0 2.78237c4.007267-3.091408 5.877871-7.515161 8.361435-12.07399l3.716648 0c0.310062 2.78237 0.6191 5.571902 0.930185 8.361435l1.855254 0c1.240247-6.192026 2.480494-12.391215 3.716648-18.584264 1.239224-0.930185 2.480494-1.859347 3.715625-2.790556l0 5.581112c0.620124 0.309038 1.240247 0.618077 1.859347 0.929162 5.429663-7.061836 9.674337-15.386432 14.864546-22.305005 4.563946 1.172709 4.443196 2.352581 7.433296 4.649903 4.14746-5.027503 7.283894-8.558933 13.008268-12.082176 1.874697 2.359744 2.045589 5.489014 1.855254 10.221806 0.620124 0.310062 1.240247 0.620124 1.860371 0.930185 4.947685-6.699586 12.772908-11.877515 20.436448-15.794731 1.655709 2.984984 1.24741 2.532683 0.930185 6.502088 4.02671-2.170432 8.052396-4.331655 12.079106-6.502088 8.206916-1.672082 12.021801 5.956665 16.723893 7.432273 8.989745 2.820232 21.317515-4.02978 30.659277 0l1.856277 0c-0.617054 3.719718-1.236154 7.432273-1.856277 11.150968 16.842597 0.1361 19.605523 8.287757 28.79993 14.865569 4.335748 1.541099 8.67252 3.091408 13.009292 4.641717 4.827959 4.703115 1.045819 8.860808 8.361435 12.082176-9.022491 6.268774-43.799552-5.172813-61.318554-1.859347-15.256472 2.879584-29.872355 8.119935-41.806151 14.863523-24.331151 13.746072-43.070958 45.924959-59.462277 67.820642-5.9055 7.885598-3.172249 13.124925-13.938454 17.655102l0 0.930185c2.479471 1.549286 4.956895 3.091408 7.437389 4.641717 0.304945 0.6191 0.61603 1.239224 0.925069 1.859347-5.882987 1.549286-11.769045 3.099594-17.651009 4.64274-7.122211 7.122211-14.248516 14.252609-21.370727 21.373797-6.192026 2.472308-12.387122 4.951779-18.580171 7.432273-15.791661 10.524704-31.589462 21.057595-47.384194 31.585369-28.178783 5.265934-56.365752 10.529821-84.544535 15.794731-19.035542 7.765871-31.775704 24.794709-47.384194 36.233226-9.444093 6.919597-20.388353 6.385431-31.587416 13.008268-5.26491 6.192026-10.530844 12.388145-15.794731 18.581194 0.6191 2.168386 1.237177 4.335748 1.857301 6.503111-9.723455-0.569982-17.581424 1.102101-18.580171 6.502088-2.469238 1.481747-4.583388 1.927909-9.290597 1.857301-3.342118 15.309684-10.772344 14.630209-18.583241 25.085328-4.02671 8.670473-8.052396 17.344017-12.079106 26.01449 3.406586 0.928139 6.814196 1.858324 10.220782 2.786463 0.6191 0.930185 1.237177 1.859347 1.857301 2.788509-1.153266 20.119223-19.62599 24.108071-26.942629 38.09155-4.334725 11.768021-8.673543 23.538089-13.006222 35.305087-8.670473 7.742335-17.34504 15.485693-26.01449 23.227004-2.786463 6.502088-5.573949 13.008268-8.360412 19.510356-7.847735 12.68695-19.044752 22.326495-25.085328 38.09155-1.859347 0.930185-3.717671 1.857301-5.575995 2.787486-15.556301-9.813506-20.1182-14.620999-17.653055-36.233226-0.308015-0.310062-0.618077-0.6191-0.928139-0.930185-3.406586 2.168386-6.814196 4.335748-10.219759 6.504134-1.548262-0.620124-3.096525-1.240247-4.646833-1.858324-1.238201-1.548262-2.476401-3.097548-3.716648-4.646833 4.379751-24.557302 21.209044-108.021226-2.786463-126.354779 1.238201-3.096525 2.478448-6.193049 3.715625-9.290597-1.548262-0.310062-3.095501-0.6191-4.64581-0.928139-0.618077-0.930185-1.237177-1.857301-1.858324-2.787486 2.168386-0.310062 4.336772-0.620124 6.504134-0.928139 0.310062-0.930185 0.620124-1.859347 0.928139-2.787486l0-0.930185c-9.67229-7.318686-4.806469-11.809977-10.218736-18.580171l0-0.928139 5.573949 0c-1.237177-3.097548-2.477424-6.196119-3.715625-9.29162 2.475378-0.310062 4.953825-0.618077 7.432273-0.928139-4.643764-6.194072-9.290597-12.388145-13.936407-18.582217-0.310062-0.928139-0.620124-1.858324-0.928139-2.786463l6.502088 0c0.930185-0.620124 1.857301-1.240247 2.787486-1.858324-1.857301-3.716648-3.715625-7.43432-5.573949-11.148921 3.096525 0.618077 6.194072 1.238201 9.290597 1.858324-1.548262-4.955872-3.098571-9.912767-4.646833-14.865569 4.056386-4.65809 6.349615-26.024723 7.432273-34.375925-4.527107-4.846378-8.921183-10.615779-10.218736-18.581194 4.024663 1.546216 8.052396 3.096525 12.07706 4.646833-0.618077-3.719718-1.238201-7.432273-1.858324-11.151991l0-2.786463 7.43432 0c-0.930185-6.192026-1.858324-12.388145-2.788509-18.580171 4.037966-2.314719 5.676279 1.957585 11.148921 3.710508 3.403516-18.877953 9.266038-12.459776 12.078083-21.366633 5.453199-17.268292-5.624091-9.465582 10.219759-23.225981 5.561669 1.240247 4.770653-7.001461 6.504134-12.075013 1.880837-2.894933 0.437975-1.988284 4.644787-2.790556 0.6191 2.170432 1.240247 4.339842 1.858324 6.502088l1.857301 0 0-10.214642c14.650675-3.750417 9.120728-19.748786 14.866592-34.378995 5.881964-11.764951 11.768021-23.537066 17.651009-35.302017 10.885931-31.090089 2.139733-65.075111-1.857301-94.76634-13.791098-5.981225-29.338189 8.626471-46.454008 2.78237-29.630854-10.109242-49.921993-31.686676-74.324776-45.5228-11.148921-2.78237-22.298865-5.571902-33.447786-8.363482-20.168342-8.217149-31.643698-41.689495-49.241494-48.306192-15.792685 19.197224-31.589462 38.402635-47.382147 57.599859-36.025495 50.921763-61.654198 111.748107-77.114308 183.031617-21.603017 99.602486 1.710968 209.022571 32.518624 280.57828C170.362574 748.518041 344.87619 881.68804 602.891592 854.567355c0.929162 4.333702 1.859347 8.670473 2.786463 13.006222-71.847351 24.153096-199.989847-6.335289-250.849188-26.942629C211.316312 782.48362 117.649002 683.207569 64.957943 534.036132c-19.280112-54.577013-33.991162-140.583852-20.440541-213.688847C60.192406 235.7874 84.477508 168.676933 124.417149 109.4449c15.482623-19.507286 30.971385-39.020712 46.454008-58.527998 5.26491-4.952802 10.530844-9.912767 15.794731-14.864546 3.203972-6.653537 8.511861-40.381709 4.644787-49.242518-11.456936-13.624299-22.916942-27.249621-34.374902-40.873919l0-0.929162c52.953026-0.311085 105.919355-0.620124 158.871357-0.930185 22.623253-5.459339 46.555315-21.298072 70.610174-28.806069 36.227086-11.296277 75.751265-14.486946 117.992321-21.367657 62.308091-10.146081 157.712975 14.630209 198.822255 30.659277 14.244422 6.502088 28.491914 13.011338 42.73736 19.514449l140.29221 0c0.309038 0.6191 0.6191 1.239224 0.929162 1.859347C876.789729-36.683225 861.474928-7.687844 841.66679-0.179846zM507.196089 141.964548l0 26.015513c0.002047 30.689976-3.477194 68.63724 8.362458 88.266299 2.788509 3.931542 23.920806 5.02034 27.870768 4.641717 0.310062 0.6191 0.620124 1.240247 0.930185 1.860371-0.930185 2.471284-1.855254 4.951779-2.787486 7.432273 29.776164-1.700735 35.363416-38.878472 43.668569-63.178925 13.099343-38.324864 25.317619-48.539506 50.169633-73.40073 6.233981-6.229888 11.727089-16.036231 21.366633-18.576077 6.101975-10.350742 4.015454-34.621519 2.786463-49.243541-0.61603-0.620124-1.236154-1.240247-1.856277-1.859347-9.169847 2.607384-17.505699 7.258311-28.801976 9.29162-14.243399 1.240247-28.492938 2.480494-42.736337 3.719718-12.737092 4.098341-19.303648 15.84078-34.376948 20.438495-20.74651 6.192026-41.500183 12.391215-62.245669 18.583241C494.189867 125.602905 503.866251 133.783215 507.196089 141.964548zM434.729637 220.937181c3.096525 9.912767 6.194072 19.824511 9.290597 29.729092 4.047176-0.022513 6.076392-0.506537 10.219759 2.789533 4.997827-1.843998 3.043313-2.410909 8.360412-2.789533 1.338485-43.664475 13.32447-95.886861-6.502088-125.426641-12.050454 2.419096-29.893844 8.045233-35.305087 17.655102C430.234253 164.540729 428.635849 194.073346 434.729637 220.937181zM656.776849-74.509738c-68.209498-20.769023-169.84734-22.11467-240.630453-2.78237-15.652492 4.272303-55.095829 11.356652-63.175855 21.367657l356.766496 0C699.231777-66.987415 672.847873-69.617311 656.776849-74.509738zM782.204513 22.117996l0-1.859347c-30.78412 4.678556-57.621349 20.700461-92.908016 25.086351-12.172227 26.924209 8.014534 61.409628 9.28855 81.755002-12.354376 6.880711-23.600511 27.363208-17.651009 48.315402 12.951987-4.000104 58.925041-29.193903 65.035202-39.021735 10.030447-16.136515 10.819416-38.024012 19.510356-55.747675C772.133134 67.090257 790.464641 41.549557 782.204513 22.117996zM623.333156 864.787114 623.333156 851.779869c0.6191-0.310062 1.238201-0.620124 1.855254-0.928139C627.407961 855.119941 626.640482 862.70571 623.333156 864.787114zM714.378755 837.843462c-10.203386 5.831822-25.789363 12.590759-39.021735 13.936407-2.476401-3.096525-4.951779-6.194072-7.432273-9.290597l0-0.930185c9.293667-7.807826 33.709753-15.350616 46.454008-17.651009L714.378755 837.843462zM751.545236 816.473759c0.310062 0.931209 0.620124 1.858324 0.930185 2.788509-2.0241 2.439562-1.837858 2.65548-5.575995 3.715625 0.6191-1.548262 1.240247-3.097548 1.859347-4.64581C749.684866 817.714006 750.616074 817.094906 751.545236 816.473759zM836.089771 766.305149c-2.165316 1.858324-4.334725 3.715625-6.502088 5.573949C831.324234 768.255571 832.090691 767.673309 836.089771 766.305149zM849.099063 753.298927c0.61603 0.618077 1.236154 1.237177 1.855254 1.858324-1.855254 1.237177-3.715625 2.477424-5.571902 3.715625 0.926092-1.858324 1.856277-3.715625 2.786463-5.573949L849.099063 753.298927zM980.096583 543.326728l0.930185 0c-0.744967 4.953825-1.924839 8.293897-4.64581 11.148921 0.533143-4.5312 1.36816-6.774287 3.715625-9.290597L980.096583 543.326728z"  horiz-adv-x="1024" />

    
    <glyph glyph-name="css" unicode="&#59460;" d="M137.747674-127.998907 137.747674 895.998907 604.773793 895.998907 604.773793 616.330083 886.252326 616.330083 886.252326-127.998907 137.747674-127.998907ZM835.508359 477.008749 188.491641 477.008749 188.491641-77.604643 835.508359-77.604643 835.508359 477.008749ZM262.639423 306.013144C275.71719 325.395385 298.529791 334.80893 331.076132 334.25487 359.536423 333.998058 379.896737 327.057563 392.194232 313.434479 404.455663 299.811395 410.437755 281.166806 410.140508 257.391432L410.140508 242.0712 348.575446 242.0712 348.575446 255.694284C348.613695 269.243056 347.237835 278.656601 344.451146 283.899947 341.66555 289.179357 337.206848 291.689563 331.076132 291.430564 324.64817 291.615251 319.892221 289.288639 316.808285 284.415758 313.689379 279.542877 311.68187 271.051672 310.754067 258.870016 309.824077 246.723331 309.378207 229.778077 309.490768 208.070316 309.378207 186.361463 309.824077 169.415115 310.754067 157.23346 311.68187 145.086775 313.689379 136.558414 316.808285 131.685533 319.892221 126.849808 324.64817 124.487133 331.076132 124.670726 338.767394 124.302446 343.932057 128.473737 346.570123 137.22394 349.244251 145.973051 350.471487 161.663749 350.285708 184.257786L411.887926 184.257786 411.887926 166.204413C411.626742 143.721843 407.651066 126.37006 399.959805 114.111907 392.306792 101.819877 382.349023 93.327579 370.125841 88.601136 357.938721 83.875786 344.89811 81.624578 331.076132 81.84642 307.483259 81.736046 289.31514 85.944492 276.646087 94.472853 263.975941 102.962966 255.244316 116.512831 250.525522 135.119171 245.769573 153.689447 243.542408 178.017788 243.800313 208.070316 243.281224 253.958887 249.596626 286.593747 262.639423 306.013144ZM489.093417 152.914638C489.203792 142.649788 491.136989 135.377076 494.926886 131.022191 498.71569 126.665121 503.73173 124.561444 510.011069 124.670726 516.549406 124.820443 521.602602 127.07165 525.168471 131.427627 528.735433 135.820761 530.520007 141.395231 530.594319 148.15104 530.036981 159.669354 524.836254 168.124496 514.951705 173.513187 505.069341 178.904065 493.589275 184.072007 480.584727 189.019199 467.543022 193.930329 456.100112 201.460946 446.217748 211.614329 436.297136 221.766619 431.095316 237.381913 430.575135 258.425239 430.575135 283.013671 437.187783 301.767541 450.490672 314.725098 463.753125 327.646593 483.817286 334.181651 510.678782 334.25487 538.247331 334.402401 558.348648 328.421401 571.017701 316.387276 583.687846 304.31381 589.928937 285.338097 589.780313 259.459046L530.223853 259.459046 530.223853 265.219296C530.259916 272.566319 528.773682 278.72982 525.764058 283.714168 522.79159 288.661361 518.22142 291.244785 512.054641 291.430564 505.217964 291.209815 500.200831 289.031826 496.969365 284.822287 493.737898 280.576684 492.139104 275.665555 492.177353 269.980709 492.73469 258.463488 498.158352 250.008346 508.44943 244.54425 518.742694 239.081246 530.66863 233.763588 544.230517 228.669958 557.79131 223.502016 569.717246 215.675245 580.01051 205.116426 590.301588 194.557607 595.72525 178.387161 596.282588 156.679401 596.172213 130.94788 588.778198 112.00823 574.027325 99.861545 559.277544 87.753108 537.83971 81.736046 509.676666 81.84642 483.185636 81.551359 462.899634 86.64499 448.818658 97.167746 434.735497 107.653346 427.639822 125.336253 427.492292 150.218653L427.492292 158.709859 489.093417 158.709859 489.093417 152.914638ZM673.154768 152.914638C673.266236 142.649788 675.199433 135.377076 678.988237 131.022191 682.778134 126.665121 687.794174 124.561444 694.073513 124.670726 700.611851 124.820443 705.702203 127.07165 709.230916 131.427627 712.797878 135.820761 714.582451 141.395231 714.618514 148.15104 714.099425 159.669354 708.896513 168.124496 699.014149 173.513187 689.131785 178.904065 677.651719 184.072007 664.647171 189.019199 651.642623 193.930329 640.162557 201.460946 630.278007 211.614329 620.395643 221.766619 615.194917 237.381913 614.637579 258.425239 614.637579 283.013671 621.250228 301.767541 634.55093 314.725098 647.81557 327.646593 667.916886 334.181651 694.741226 334.25487 722.309776 334.402401 742.411092 328.421401 755.080145 316.387276 767.749198 304.31381 773.991381 285.338097 773.842758 259.459046L714.285204 259.459046 714.285204 265.219296C714.321267 272.566319 712.836126 278.72982 709.826502 283.714168 706.852941 288.661361 702.283864 291.244785 696.117085 291.430564 689.317564 291.209815 684.263276 289.031826 681.031809 284.822287 677.835313 280.576684 676.201548 275.665555 676.239797 269.980709 676.794949 258.463488 682.220796 250.008346 692.511875 244.54425 702.802953 239.081246 714.731075 233.763588 728.291868 228.669958 741.853754 223.502016 753.77969 215.675245 764.070769 205.116426 774.364033 194.557607 779.787694 178.387161 780.345032 156.679401 780.232472 130.94788 772.840643 112.00823 758.089769 99.861545 743.376051 87.753108 721.901061 81.736046 693.739111 81.84642 667.248081 81.551359 646.962078 86.64499 632.881103 97.167746 618.797942 107.653346 611.702267 125.336253 611.553643 150.218653L611.553643 158.709859 673.154768 158.709859 673.154768 152.914638ZM637.338712 895.998907 886.252326 648.734357 637.338712 648.734357 637.338712 895.998907Z"  horiz-adv-x="1024" />

    
    <glyph glyph-name="huojian" unicode="&#58982;" d="M959.048 759.154c-2.555-82.693-20.489-162.176-50.429-239.181-35.825-92.14-88.224-173.227-161.672-240.226-5.962-5.434-7.827-11.259-7.04-18.921 2.541-24.786 4.579-49.622 7.144-74.403 5.981-57.804-14.359-105.104-61.181-138.675-50.217-36.006-102.463-69.239-154.295-102.962-32.664-21.254-72.81-1.964-76.448 36.589-4.176 44.281-7.457 88.651-10.554 133.021-1.546 22.204-0.945 22.401-22.543 25.233-57.361 7.53-102.246 34.614-133.068 83.8-15.856 25.307-23.718 53.296-26.476 82.693-0.826 8.819-4.395 11.071-12.749 11.533-46.403 2.552-92.802 5.286-139.144 8.77-38.54 2.901-58.095 43.35-37.433 77.119 14.521 23.727 29.964 46.898 44.95 70.342 16.141 25.248 32.176 50.561 48.357 75.78 29.61 46.147 72.302 71.076 126.945 71.513 31.29 0.249 62.643-5.242 93.914-8.594 5.927-0.637 10.122 0.173 14.212 4.725 72.612 80.771 162.469 135.288 264.204 171.764 57.504 20.617 116.676 34.075 177.39 40.309 30.594 3.14 61.417 4.295 91.987-1.345 16.658-3.071 17.511-3.752 20.076-19.945C957.753 791.907 959.791 775.641 959.048 759.154L959.048 759.154zM783.829 555.308c0.674 54.506-44.689 101.39-98.598 102.276-56.007 0.921-104.492-39.596-105.825-102.868-1.118-52.772 46.913-100.566 100.507-100.943C737.004 453.37 783.122 498.434 783.829 555.308L783.829 555.308zM181.685 244.114c13.74-0.186 21.347-6.218 26.269-20.181 19.306-54.726 54.43-96.254 105.361-124.387 11.239-6.208 23.079-11.244 35.318-15.399 22.006-7.467 27.025-28.799 10.698-45.213-24.172-24.291-48.603-48.318-72.774-72.601-7.99-8.03-16.783-11.826-28.031-7.673-11.416 4.224-16.925 12.641-17.501 24.41-0.365 7.462-0.178 14.948-0.354 22.424-0.326 13.734-0.454 13.846-13.155 9.662-27.159-8.957-54.284-17.996-81.438-26.953-8.009-2.641-16.043-3.738-23.876 0.676-11.484 6.473-15.818 18.046-11.195 32.282 9.019 27.766 18.491 55.389 27.711 83.09 4.003 12.019 3.757 12.284-9.284 12.484-7.872 0.123-15.754-0.01-23.61 0.367-11.44 0.548-19.593 6.066-23.832 16.844-4.136 10.51-1.492 19.657 6.232 27.393 25.22 25.252 50.552 50.395 75.876 75.555C169.142 241.904 175.129 244.741 181.685 244.114L181.685 244.114z"  horiz-adv-x="1024" />

    
    <glyph glyph-name="wangzhan" unicode="&#58947;" d="M512 864C246.912 864 32 649.152 32 384s214.912-480 480-480c265.152 0 480 214.848 480 480S777.152 864 512 864zM320.256 752.96c20.864 10.88 42.688 20.16 65.408 27.392-23.616-34.624-43.968-78.656-59.904-129.6-23.808 15.232-37.76 33.472-37.76 53.248 0 17.984 12.224 34.56 32.256 48.96zM227.136 686.656c7.424-37.568 36.864-71.296 82.752-96.512-11.84-53.376-19.2-112.064-21.12-174.144H97.6a414.464 414.464 0 0 0 129.536 270.656z m0-605.312A414.464 414.464 0 0 0 97.6 352h191.104c1.92-62.08 9.344-120.768 21.184-174.144-45.888-25.088-75.328-58.944-82.752-96.512z m93.12-66.304C300.224 29.44 288 46.08 288 64c0 19.776 13.952 38.08 37.76 53.312 15.936-51.008 36.288-94.976 59.904-129.664a411.392 411.392 0 0 0-65.408 27.392z m159.744-38.656c-40.192 21.184-74.816 81.856-97.92 165.568a425.536 425.536 0 0 0 97.92 16.704v-182.272z m0 245.824a454.592 454.592 0 0 1-111.68-20.288A966.4 966.4 0 0 0 352.64 352H480v-129.792z m0 193.792H352.64a966.4 966.4 0 0 0 15.68 150.08 460.608 460.608 0 0 1 111.68-20.352V416z m0 193.344a432.512 432.512 0 0 0-97.92 16.704c23.104 83.712 57.728 144.32 97.92 165.568v-182.272z m316.864 77.312A414.08 414.08 0 0 0 926.336 416h-191.104c-1.92 62.08-9.344 120.768-21.184 174.144 45.952 25.152 75.392 58.944 82.816 96.512z m-93.12 66.304c20.032-14.4 32.256-30.976 32.256-48.96 0-19.776-13.952-38.016-37.76-53.248-15.936 50.944-36.288 94.976-59.968 129.6a409.6 409.6 0 0 0 65.472-27.392zM544 791.616c40.256-21.248 74.88-81.856 97.92-165.568a432.512 432.512 0 0 0-97.92-16.704V791.616z m0-245.888a460.096 460.096 0 0 1 111.68 20.288c8.64-45.888 14.144-96.448 15.68-150.016H544V545.728z m0-193.728h127.36c-1.536-53.568-7.04-104.128-15.68-150.144a454.016 454.016 0 0 1-111.68 20.288V352z m0-375.616v182.272a425.536 425.536 0 0 0 97.92-16.704c-23.04-83.712-57.664-144.384-97.92-165.568z m159.744 38.656c-20.864-10.88-42.688-20.16-65.408-27.456 23.616 34.688 44.032 78.656 59.968 129.664 23.808-15.232 37.76-33.536 37.76-53.312-0.064-17.856-12.288-34.496-32.32-48.896z m93.12 66.304c-7.424 37.568-36.928 71.36-82.816 96.512a936.96 936.96 0 0 1 21.184 174.144h191.104a414.08 414.08 0 0 0-129.472-270.656z"  horiz-adv-x="1024" />

    
    <glyph glyph-name="zhuye" unicode="&#58948;" d="M879.115049 846.095184C849.552665 846.095184 827.161355 831.021295 827.161355 811.117908s22.244962-34.977276 51.953694-34.977276S931.068744 791.214521 931.068744 811.117908s-22.391311 34.977276-51.953695 34.977276z m0-48.880378c-16.976418 0-30.733171 7.610119-30.733171 13.756753 0 6.292983 13.756753 13.756753 30.733171 13.756753s30.733171-7.46377 30.733172-13.756753c0-6.292983-13.756753-13.756753-30.733172-13.756753zM939.703301 896c-21.220523 0-37.172503-11.122481-37.172502-25.610976s15.951979-25.464628 37.172502-25.464628 37.172503 10.976133 37.172503 25.464628c0 14.634844-15.951979 25.610976-37.172503 25.610976z m0-33.367443c-12.293269 0-19.61069 5.414892-19.61069 7.902815 0 2.195227 6.146634 7.024725 16.537373 7.756467l3.073317 0.146349c12.293269 0 19.61069-5.561241 19.610691-7.902816 0-2.78062-7.610119-7.902815-19.610691-7.902815zM582.320423 155.769616H391.628412c-10.829784 0-19.464342-8.634558-19.464342-19.464342s8.780906-19.464342 19.464342-19.464342h190.692011c10.683436 0 19.464342 8.634558 19.464342 19.464342s-8.780906 19.464342-19.464342 19.464342zM899.311133 426.806917l-36.733457 32.928398v210.741747c17.415464 8.049164 29.416035 25.610976 29.416036 45.953408 0 27.952551-22.684007 50.636559-50.636559 50.636559h-89.272545c-27.952551 0-50.636559-22.684007-50.636559-50.636559 0-13.610404 5.268544-26.342718 14.781192-35.855366 4.244105-4.244105 9.219951-7.756467 14.634844-10.244391v-92.492211L552.172645 738.236387c-36.148063 35.709018-94.687437 35.709018-130.835501 0L74.78405 426.953266l-0.439045-0.439046C63.661569 415.977133 55.905102 402.952122 51.514649 388.756324c-0.146348-0.292697-0.146348-0.439045-0.292697-0.731742-0.439045-1.463484-1.756181-7.317422-2.195226-14.92754h0.146348c-0.146348-1.90253-0.292697-3.805059-0.292697-5.561241V193.527512c0.146348-24.001143 19.757039-43.758182 43.758182-43.758182 6.146634 0 11.854223 1.170787 17.122767 3.219665v-280.988995h754.865228l-0.146348 5.853937V273.14106c13.025011 4.536801 25.025582 12.14692 35.269973 22.244963 36.148063 36.148063 36.148063 94.980134-0.146349 131.128197l-0.292697 0.292697z m-172.105759 289.769902c0 13.610404 11.122481 24.732886 24.732885 24.732885h89.272546c13.610404-0.146348 24.732886-11.268829 24.732885-24.732885 0-13.610404-11.122481-24.732886-24.732885-24.732886h-89.272546c-13.610404 0-24.732886 11.122481-24.732885 24.732886z m109.322281-50.929256v-182.496498L756.914106 554.569101v111.078462h79.613549zM589.491496 103.230527v-205.180506H575.14935V98.108332H398.799485v-200.058311h-14.342146V103.230527c-15.220237 3.219666-26.635415 16.683722-26.635415 32.928398 0 18.7326 15.220237 33.806488 33.806488 33.806489h190.545663c18.7326 0 33.806488-15.220237 33.806488-33.806489 0-16.098328-11.268829-29.562384-26.489067-32.928398z m291.965128 210.44905c-12.14692-12.000572-27.806203-18.439903-43.611833-19.317993l0.585393-0.585394c-1.463484-0.146348 0-25.464628-4.390453-25.610976h-0.439045c-24.147492 0-47.855938 9.805345-64.978705 26.781763L486.901243 542.422181 205.180506 295.093326c-2.634272-2.634272-5.414892-4.975847-8.195512-7.171074v-36.733457c0-21.659568-19.61069-39.367729-43.758183-39.367729-4.390453 0-8.780906 0.585394-12.878662 1.756181-2.341575 0.585394-4.68315-1.024439-4.68315-3.512362v5.122195h0.146349v34.538231c-0.146348 0.439045-0.146348 1.024439-0.146349 1.609833v48.294983c0 7.171073-5.853937 13.025011-13.02501 13.025011-3.512362 0-6.732028-1.317136-9.219952-3.805059s-3.805059-5.707589-3.805059-9.219952V189.576104c-2.048878-7.317422-8.634558-12.732314-16.683722-12.878662-9.805345-0.292697-18.000858 7.46377-18.147206 17.122767V375.584965c2.78062 12.293269 8.780906 23.41575 17.708161 32.489353l346.699443 311.283121 0.439045 0.439045c26.050021 26.050021 68.491068 26.050021 94.541089 0l0.292697-0.292697 347.138488-311.429469c25.903673-26.050021 25.903673-68.491068-0.146349-94.394741z"  horiz-adv-x="1024" />

    
    <glyph glyph-name="saoma1" unicode="&#58950;" d="M64 418.8h896.5v-69.2H64v69.2z m-0.1 115.3h69V740.3h275.9v69H63.9zM615.8 809.3v-69h275.7v-206.2h69.2V809.3z m275.7-781.1H615.8V-41h344.6V234.2h-68.9z m-758.6 206h-69V-41h344.9v69.2H132.9zM313.6 473.8V626.6h-61.2v-152.8h61.2z m30.5 0h30.6V626.6h-30.6v-152.8zM711 626.6v-152.8h61.1V626.6H711z m-91.7 0h-40.8v-152.8h40.8V626.6z m-91.7 0h-51v-152.8h51V626.6z m244.5-503.4V296.4H711v-173.2h61.1zM435.8 626.6h-20.3v-152.8h20.3V626.6z m234.4 0h-20.4v-152.8h20.4V626.6z m-91.7-503.4h40.8V296.4h-40.8v-173.2z m91.7 173.2h-20.4v-173.2h20.4V296.4zM344.1 123.2h30.6V296.4h-30.6v-173.2z m-30.5 0V296.4h-61.2v-173.2h61.2z m163 0h51V296.4h-51v-173.2z m-61.1 0h20.3V296.4h-20.3v-173.2z"  horiz-adv-x="1024" />

    
    <glyph glyph-name="sheji" unicode="&#58956;" d="M992.256 600.576L775.68 384l220.16-220.16c24.064-24.064 24.064-63.488 0-88.064l-176.128-176.128c-24.064-24.064-63.488-24.064-88.064 0l-220.16 220.16-132.096-132.096c-116.736-116.736-335.872-71.168-335.872-71.168s-45.056 217.6 72.192 334.848L247.808 384l-220.16 220.16C3.584 628.224 3.584 667.648 27.648 692.224L203.776 868.352C227.84 892.416 267.264 892.416 291.84 868.352l220.16-220.16 216.576 216.576c6.144 8.704 16.896 15.36 33.792 15.36 29.184 0.512 67.584 1.536 94.72 2.048 18.944 0 41.472-9.216 50.176-17.92 22.016-22.016 58.88-58.368 81.92-81.408 10.24-10.24 20.48-25.088 20.48-54.784 0-71.168 5.632-112.128-17.408-127.488z m-407.04-465.92l66.048 66.048c4.096 4.096 10.752 4.096 14.848 0l14.848-14.848c4.096-4.096 4.096-10.752 0-14.848l-66.56-65.536 58.88-58.88 66.048 66.048c4.096 4.096 10.752 4.096 14.848 0l14.848-14.848c4.096-4.096 4.096-10.752 0-14.848l-66.048-66.048 44.032-44.032c16.384-16.384 42.496-16.384 58.88 0l117.248 117.248c16.384 16.384 16.384 42.496 0 58.88l-190.464 190.464-176.128-176.128 28.672-28.672z m-492.032-84.992c44.544-41.984 63.488-58.368 93.184-85.504 36.352 1.024 96.768 14.848 120.32 38.4l-176.128 176.128c-24.576-24.576-37.888-91.136-37.376-129.024zM276.992 794.624c-16.384 16.384-42.496 16.384-58.88 0L101.376 677.376c-16.384-16.384-16.384-42.496 0-58.88l44.032-44.032 66.048 66.048c4.096 4.096 10.752 4.096 14.848 0l14.848-14.848c4.096-4.096 4.096-10.752 0-14.848l-66.56-65.536L233.472 486.4l65.536 66.56c4.096 4.096 10.752 4.096 14.848 0l14.848-14.848c4.096-4.096 4.096-10.752 0-14.848L262.656 457.216l29.184-29.184L467.968 604.16 276.992 794.624zM739.84 691.2c-14.336 14.336-21.504 26.112-21.504 49.664 0 7.68 0.512 16.896 0.512 26.624L174.592 222.72l176.128-176.128L896 592.384c-4.608 0-9.216 0-13.824-0.512-36.864 0-53.248 10.24-66.56 23.552L739.84 691.2zM890.88 764.928c-23.552 23.552-52.736 33.28-64.512 21.504-11.776-11.776-2.048-40.96 21.504-64.512 23.552-23.552 52.736-33.28 64.512-21.504 11.776 11.776 2.56 40.448-21.504 64.512z"  horiz-adv-x="1024" />

    
    <glyph glyph-name="weilai" unicode="&#59005;" d="M512 828.032c-86.304 0-156.256-68.96-156.256-154.048v-579.968c0-85.088 69.952-154.048 156.256-154.048s156.256 68.96 156.256 154.048V673.984c0 85.088-69.952 154.048-156.256 154.048zM512 896c124.384 0 225.216-99.392 225.216-222.016v-579.968C737.216-28.607999999999947 636.384-128 512-128c-124.384 0-225.216 99.392-225.216 222.016V673.984C286.784 796.608 387.616 896 512 896z m384.544-734.016c43.168 74.752 18.4 169.824-55.264 212.352L339.008 664.3199999999999C265.28 706.88 170.56 680.768 127.456 606.0160000000001c-43.168-74.752-18.4-169.824 55.264-212.352l502.272-289.984c73.696-42.56 168.416-16.448 211.552 58.304zM955.424 128c-62.208-107.712-198.72-145.344-304.896-84.032L148.256 333.952C42.08 395.264 6.4 532.288 68.576 640c62.208 107.712 198.72 145.344 304.896 84.032l502.272-289.984c106.176-61.312 141.856-198.336 79.68-306.048z m-58.88 478.016C853.44 680.768 758.72 706.88 685.024 664.3199999999999L182.72 374.336c-73.664-42.56-98.432-137.6-55.264-212.352 43.136-74.752 137.856-100.864 211.52-58.304l502.304 289.984c73.664 42.56 98.432 137.6 55.264 212.352zM955.424 640c62.176-107.712 26.496-244.736-79.68-306.048L373.44 43.96799999999996c-106.176-61.312-242.688-23.68-304.864 84.032-62.208 107.712-26.56 244.736 79.68 306.048l502.24 289.984c106.176 61.312 242.688 23.68 304.864-84.032zM505.088 316.03200000000004c38.08 0 68.928 30.432 68.928 67.968s-30.88 67.968-68.928 67.968c-38.08 0-68.96-30.432-68.96-67.968s30.88-67.968 68.96-67.968z"  horiz-adv-x="1024" />

    
    <glyph glyph-name="zhuanjiajianbiezhuanhuan" unicode="&#58957;" d="M99.446154 740.430769c150.055385-2.953846 287.310769 64.787692 413.932308 136.861539C638.030769 802.658462 775.68 738.461538 924.553846 740.430769c1.181538-159.113846 2.56-318.227692-0.393846-477.341538-34.658462-149.661538-152.812308-270.572308-286.326154-340.48-75.618462-44.307692-175.064615-44.307692-250.88-0.393846-130.56 67.150769-241.230769 182.941538-284.750769 324.923077-8.270769 164.036923-2.363077 329.058462-2.756923 493.292307z m119.335384-39.187692c-25.009231-8.073846-59.667692-1.575385-79.753846-18.904615-4.332308-105.944615 0.196923-212.086154-1.96923-318.03077-13.981538-140.406154 81.329231-264.073846 185.501538-346.584615 71.089231-52.184615 163.643077-115.396923 254.030769-73.255385 142.769231 60.652308 266.436923 182.744615 307.396923 334.769231 6.104615 135.876923 0.787692 272.147692 2.363077 408.221539-136.270769 5.316923-260.135385 65.969231-374.153846 135.876923-92.750769-51.003077-186.092308-108.898462-293.415385-122.092308zM412.553846 390.301538c-103.778462 55.926154-71.483077 226.461538 39.778462 250.486154 101.021538 31.901538 201.058462-88.418462 162.658461-183.138461-8.467692-30.129231-33.083077-51.003077-52.184615-74.436923 23.236923-15.163077 46.276923-30.326154 69.316923-45.489231-6.301538-9.058462-19.101538-26.781538-25.403077-35.84-63.212308 45.292308-156.553846 67.938462-220.16 10.24-54.153846-34.855385-55.729231-102.793846-76.8-156.750769-27.963077-28.356923-47.261538 30.72-36.233846 51.2 9.058462 81.92 70.104615 144.935385 139.027692 183.72923z m-11.421538 112.049231c-7.68-54.941538 43.52-86.449231 88.024615-102.203077 68.135385 16.935385 110.867692 102.990769 59.470769 158.72-45.883077 59.076923-153.009231 17.723077-147.495384-56.516923zM607.113846 164.233846c60.455385 61.833846 116.972308 127.409231 181.169231 185.501539 10.043077-5.710769 29.932308-17.526154 39.975385-23.433847-66.363077-80.344615-144.541538-150.055385-217.206154-224.492307-46.473846 36.824615-81.723077 84.873846-120.516923 129.378461 5.316923 9.255385 16.147692 27.766154 21.464615 37.021539 34.067692-32.295385 65.181538-67.741538 95.113846-103.975385z"  horiz-adv-x="1024" />

    
    <glyph glyph-name="sheji1" unicode="&#58958;" d="M995.101414 181.03491L777.912018 398.024315l210.189737 210.189737c30.798496 29.598555 31.898442 78.496167 2.499878 109.494654L845.508718 862.801621c-30.898491 29.69855-80.096089 28.698599-109.794639-2.299888l-0.399981-0.39998L526.024318 650.911967 308.834923 867.101411c-38.69811 38.598115-101.295054 38.598115-139.89317 0l-139.993164-139.993164c-38.598115-38.69811-38.598115-101.295054 0-139.89317L245.138033 370.025682 112.344517 237.232166l-1.399932-3.099848C81.646016 171.035399-16.149209-39.954299 35.948247-92.051755c52.097456-52.097456 262.887164 44.897808 326.884039 75.796299l3.099849 1.399931 132.793516 132.793516 216.389434-216.989405c38.69811-38.598115 101.295054-38.598115 139.893169 0l139.893169 139.89317c38.69811 38.69811 38.798106 101.395049 0.199991 140.193154zM764.012697 832.10312c13.999316 15.199258 37.598164 16.399199 53.097407 2.699868l145.092916-145.092915c14.099312-15.399248 13.199356-39.298081-1.999902-53.497388l-83.995899-83.995899L680.016798 748.407207l83.995899 83.695913z m-552.972999-370.981886l111.994531 111.994532c9.699526 5.699722 12.89937 18.299106 7.199649 27.998633s-18.299106 12.89937-27.998633 7.199648c-2.999854-1.699917-5.399736-4.199795-7.199649-7.199648l-111.094575-111.994532-56.997217 55.997266L239.038331 657.011669c5.699722 9.699526 2.499878 22.198916-7.199649 27.998633a20.399004 20.399004 0 0 1-20.798984 0L98.845176 573.015771l-41.897954 42.097944c-23.098872 23.198867-23.098872 60.797031 0 83.995899l139.993164 139.993164c23.198867 23.098872 60.797031 23.098872 83.995899 0l217.189395-216.989405-224.789024-224.689028-62.296958 63.696889zM63.94688-64.053122c-17.999121 17.999121 14.899272 133.993457 71.496509 255.78751l183.891021-183.891021C198.140328-48.95386 81.646016-82.052244 63.94688-64.053122z m405.880182 210.189736L353.432745 29.642303 157.242325 225.832723l116.494311 116.494312 27.998633 27.998633L526.424298 595.014697l27.998633 27.998632 98.09521 98.095211L848.608566 525.018114l-98.69518-98.695181-27.998633-27.998632-224.689029-224.789024-27.398662-27.398663z m497.075728-76.99624l-139.993164-139.993164c-23.198867-23.098872-60.797031-23.098872-83.995899 0l-42.097944 42.097944L813.010305 83.039695c9.699526 5.699722 12.89937 18.299106 7.199648 27.998633s-18.299106 12.89937-27.998633 7.199649c-2.999854-1.699917-5.399736-4.199795-7.199648-7.199649L673.01714-0.956203l-56.197256 55.997265 111.994532 111.994532c9.699526 5.699722 12.89937 18.299106 7.199648 27.998633s-18.299106 12.89937-27.998633 7.199648c-2.999854-1.699917-5.399736-4.199795-7.199648-7.199648l-111.994532-111.994532-62.796933 62.896929 224.689029 224.689029L967.102781 153.036278c23.098872-23.198867 23.098872-60.797031 0-83.995899l-0.199991 0.099995z"  horiz-adv-x="1024" />

    
    <glyph glyph-name="huojian1" unicode="&#59006;" d="M509.866667 155.733333h-1.066667c-90.666667 0-185.6 22.4-189.866667 23.466667a32 32 0 0 0-19.2 13.866667c-3.2 5.333333-77.866667 121.6-55.466666 338.133333 5.333333 52.266667 21.333333 150.4 67.2 233.6S428.8 894.933333 510.933333 894.933333c44.8 0 85.333333-12.8 120.533334-38.4s56.533333-53.333333 77.866666-92.8c41.6-76.8 57.6-169.6 64-233.6 19.2-205.866667-39.466667-328.533333-41.6-333.866666a32 32 0 0 0-22.4-17.066667c-3.2-1.066667-109.866667-23.466667-199.466666-23.466667z m-162.133334 83.2c28.8-6.4 98.133333-19.2 161.066667-19.2h1.066667c62.933333 0 138.666667 12.8 170.666666 19.2a477.866667 477.866667 0 0 1 18.133334 65.066667c9.6 46.933333 20.266667 123.733333 10.666666 220.8-7.466667 82.133333-27.733333 155.733333-56.533333 209.066667-17.066667 30.933333-37.333333 55.466667-59.733333 71.466666s-52.266667 26.666667-83.2 26.666667-57.6-8.533333-83.2-26.666667-42.666667-40.533333-60.8-71.466666c-40.533333-72.533333-54.4-162.133333-59.733334-209.066667-10.666667-102.4 3.2-178.133333 16-224 10.666667-29.866667 19.2-51.2 25.6-61.866667zM510.933333 541.866667a96 96 0 1 0 96 96 96 96 0 0 0-96-96z m0 128a32 32 0 1 1 32-32 32 32 0 0 1-32 32zM146.133333 136.533333a32 32 0 0 0-32 32c0 75.733333 22.4 149.333333 65.066667 213.333334 32 49.066667 65.066667 75.733333 66.133333 76.8l40.533334-50.133334s-27.733333-22.4-54.4-64-43.733333-84.266667-50.133334-131.2l109.866667 36.266667a32 32 0 1 0 20.266667-60.8l-154.666667-50.133333zM874.666667 136.533333l-9.6 2.133334-155.733334 51.2a32 32 0 1 0 20.266667 60.8l109.866667-36.266667c-6.4 45.866667-23.466667 89.6-50.133334 131.2s-54.4 64-54.4 64l20.266667 24.533333 20.266667 24.533334c1.066667-1.066667 34.133333-27.733333 66.133333-76.8 42.666667-64 65.066667-138.666667 65.066667-213.333334a32 32 0 0 0-32-32zM518.4-124.8l-13.866667 3.2c-72.533333 32-102.4 84.266667-114.133333 122.666667a199.466667 199.466667 0 0 0-6.4 24.533333c-20.266667-7.466667-44.8-11.733333-62.933333-1.066667s-20.266667 23.466667-20.266667 40.533334c5.333333 104.533333 73.6 153.6 76.8 154.666666l36.266667-52.266666c-2.133333-1.066667-35.2-26.666667-46.933334-80l29.866667 13.866666a32 32 0 0 0 34.133333-1.066666 32 32 0 0 0 13.866667-30.933334 131.2 131.2 0 0 1 6.4-52.266666c8.533333-25.6 24.533333-46.933333 48-64a129.066667 129.066667 0 0 0 58.666667 57.6c16 7.466667 32 11.733333 45.866666 14.933333s23.466667 5.333333 30.933334 10.666667 11.733333 8.533333 18.133333 33.066666-1.066667 69.333333-24.533333 97.066667a32 32 0 1 0 48 42.666667c22.4-25.6 33.066667-59.733333 37.333333-83.2s5.333333-55.466667 0-73.6c-8.533333-30.933333-22.4-52.266667-42.666667-66.133334s-37.333333-17.066667-53.333333-21.333333-22.4-5.333333-33.066667-10.666667c-30.933333-14.933333-37.333333-46.933333-37.333333-50.133333a30.933333 30.933333 0 0 0-16-23.466667 30.933333 30.933333 0 0 0-12.8-5.333333z"  horiz-adv-x="1024" />

    
    <glyph glyph-name="bixin" unicode="&#59663;" d="M950.773531 286.110751c-3.282418 105.769339-54.771774 135.837202-89.677485 143.99178a121.083477 121.083477 0 0 1-17.498604 53.753881c-19.088346 30.674023-50.460026 49.510756-87.275717 52.827485a110.824491 110.824491 0 0 1-14.58217 42.442692 105.220363 105.220363 0 0 1-52.541559 44.684343q17.464293 18.756673 36.724194 38.965846c35.980789 37.742087 61.039248 102.075189 35.912167 160.746978C742.391464 868.905756 698.656392 896 644.811014 896c-21.593048 0-44.604284-4.15163-70.314651-12.683629-0.869212-0.285925-1.726986-0.594724-2.584761-0.903522-32.984296-12.088905-71.629906-36.255277-112.551478-68.621976a223.021422 223.021422 0 0 1-84.244912 55.24069C317.74724 890.064199 261.728833 882.653026 221.379111 848.719459c-81.259857-68.290303-15.15402-190.357361 26.934126-251.876963C149.360348 471.138473 72.412238 333.28836 72.881155 244.685952q0-3.945764 0.388858-7.868654c14.296245-150.659548 151.105591-256.669064 443.58389-343.750351 46.960306-13.976009 91.370161-21.066947 131.994371-21.066947 80.44783 0 150.110573 27.997766 201.462685 80.973932 93.383072 96.333817 102.990149 250.069918 100.462572 333.136819zM277.877872 781.481359c21.39862 17.93321 51.111935 10.922331 66.952174 5.078026a137.930172 137.930172 0 0 0 48.138316-30.479594c-28.695423-27.105681-57.596712-57.047736-85.708848-88.728215-28.855541 47.520718-48.012509 98.449662-29.381642 114.129783z m370.958965-821.633793c-30.994259 0-66.460384 5.375388-106.935913 17.418545C232.530183 69.356803 168.380072 164.466862 160.728722 245.109121 160.08825 376.634575 453.001154 745.260393 602.105271 799.929234c17.281301 5.718498 31.348806 8.211763 42.648558 8.211763 53.936873 0 44.432729-56.521634 17.532915-84.736704-32.526817-34.162307-282.390868-296.58418-240.748766-325.233855a21.730292 21.730292 0 0 1 12.683629-3.888579c44.398418 0 118.315724 115.811022 167.883664 137.804365 19.042598 8.474814 33.075792 11.905913 43.300467 11.905913 32.115085 0 25.721804-33.956441 16.926754-50.116916-4.574798-8.463377-142.96245-130.564746-100.313892-172.183975 5.821431-5.718498 11.722921-8.166015 17.715907-8.166015 38.005138 0 79.407063 100.027967 122.730404 122.947707 16.892443 8.943731 30.982822 12.935242 42.030961 12.935242 30.422409 0 37.947953-30.159358 18.150512-70.326088-7.822905-15.863113-105.151741-145.5129-60.181473-172.183975a22.267831 22.267831 0 0 1 11.528492-3.282418c39.297518 0 81.042554 105.654969 88.773963 118.075547 4.426117 7.102375 19.717381 23.49159 33.796323 23.49159 12.969553 0 24.909777-13.89595 26.396587-61.759779 2.653383-86.818237-8.063082-323.575491-214.123439-323.575491z"  horiz-adv-x="1024" />

    
    <glyph glyph-name="huojian2" unicode="&#58959;" d="M910.806812 586.409865a127.323547 127.323547 0 1 1-127.323547-127.248385 127.774516 127.774516 0 0 1 127.323547 127.248385z m-53.81562 0a73.583089 73.583089 0 1 0-73.507927 73.583089 73.583089 73.583089 0 0 0 73.507927-73.583089z m0 0M1092.096301 887.657076l-0.901938 7.516148h-7.516148c-13.078097 0.52613-26.081033 0.751615-38.482678 0.751615a757.101585 757.101585 0 0 1-258.55549-42.992367 627.82384 627.82384 0 0 1-172.871403-94.853787c-76.664709-60.129184-114.77158-119.206107-124.016442-134.839695l-179.560775-22.548444L45.247211 335.295361h260.359366c-3.53259-72.455666 13.153259-128.977099 49.531415-167.985907 48.328831-51.936583 119.657076-59.678215 157.839107-59.678215 7.516148 0 14.355843 0 19.316501 0.676453v-236.307692l288.54492 265.620669V294.332355a665.254257 665.254257 0 0 1 253.745156 383.323546c28.411039 118.003523 17.963594 206.092777 17.512625 209.77569z m-333.71697-588.965356v-142.806811l-163.626542-143.708749v105.226071a54.191427 54.191427 0 0 1-54.416911 53.81562c-2.330006 0-15.032296-1.50323-27.358779-1.50323-47.802701 0-84.631826 13.453905-109.284791 39.985907-26.982971 29.012331-39.159131 73.958896-35.175573 130.104522a54.116265 54.116265 0 0 1-53.740458 57.573693H196.096301l143.708749 143.934234 162.574281 20.368761a53.815619 53.815619 0 0 1 40.587199 27.659425c5.411627 9.846154 135.967117 238.337052 489.075748 243.899001a610.912507 610.912507 0 0 0-251.790957-491.330593 54.191427 54.191427 0 0 1-21.87199-43.368173z m0 0M259.006459 187.076923a192.714034 192.714034 0 0 0-26.081033 88.765708l0.450969 18.264239L0 112.516735l142.055197-23.675866-94.252496-144.310041 193.991779 49.982384 47.20141-118.153846 178.433353 178.433353-15.032296 3.532589c-91.396359 21.871991-158.290076 66.367587-193.465649 128.751615z m-57.724016-121.761597a54.116265 54.116265 0 0 1-35.927188 82.677628l-14.506165 2.480328 40.587199 31.567822a286.064592 286.064592 0 0 1 55.018203-81.625367 341.909571 341.909571 0 0 1 105.226072-73.507927l-39.6101-39.6101-15.032296 37.58074a54.492073 54.492073 0 0 1-50.207869 33.822666 52.613036 52.613036 0 0 1-12.852613-1.578391l-45.848502-11.875514z m0 0"  horiz-adv-x="1094" />

    
    <glyph glyph-name="daka" unicode="&#59129;" d="M905.728 750.464a607.552 607.552 0 0 1-81.728 4.16v-58.24A78.272 78.272 0 0 0 717.44 627.2a80.32 80.32 0 0 0-49.152 75.52V755.2H355.2v-38.08c0.64-9.216 0.64-18.432 0-27.712a78.208 78.208 0 0 0-85.888-69.184 79.616 79.616 0 0 0-69.248 81.664V753.92H130.88a47.04 47.04 0 0 1-12.416 0A94.848 94.848 0 0 1 49.216 660.48v-637.76a94.208 94.208 0 0 1 90.688-101.76h737.408a94.848 94.848 0 0 1 97.664 101.12V655.488a92.096 92.096 0 0 1-69.248 94.912z m8.32-310.912v-301.632c0-5.184 25.664-12.672 25.664-24.32 0-5.184-8.576-14.72-25.664-28.736v-28.928a59.52 59.52 0 0 0-6.272-26.24 28.416 28.416 0 0 0-27.008-13.888c-14.976 3.008-23.488 3.008-25.6 0-47.936-68.736-65.6 0-85.952 0H142.72a32.576 32.576 0 0 0-35.968 37.376V497.024H913.28l0.64-57.472zM277.696 657.664a47.04 47.04 0 0 1 45.696 49.152v92.8a49.216 49.216 0 0 1-8.96 33.92 44.288 44.288 0 0 1-50.56 11.776 46.4 46.4 0 0 1-32.576-44.992v-94.208a47.808 47.808 0 0 1 46.4-48.448z m465.28 0a47.04 47.04 0 0 1 45.696 49.152v92.8a49.216 49.216 0 0 1-12.416 33.92 44.288 44.288 0 0 1-50.56 11.776 46.4 46.4 0 0 1-29.12-44.352v-94.144a47.808 47.808 0 0 1 46.4-49.152z m-387.008-576.128h122.496v95.616H355.968v-95.616z m-186.24 94.208h121.792v-94.208H169.664v94.208z m186.24 128.064h121.856v-94.144H355.968V303.808z m-63.744 0H170.368v-94.144h121.856V303.808z m557.44 128.128v-59.136l-57.6 12.032L727.744 384v47.936h121.92z m-185.6 0v-68.032l-29.568-16.256-19.392-9.856H542.08v94.08h121.92z m-185.6 0H355.968v-94.144h122.496v94.08zM768 384c-141.76 0-256-114.24-256-256s114.24-256 256-256 256 114.24 256 256-114.24 256-256 256z m128-206.72l-135.872-135.936a22.4 22.4 0 0 0-15.744-5.888 22.4 22.4 0 0 0-15.744 5.888l-84.672 84.672a23.936 23.936 0 0 0 0 31.552 23.936 23.936 0 0 0 31.488 0l68.928-68.928 120.128 120.128a23.936 23.936 0 0 0 31.488 0 20.48 20.48 0 0 0 0-31.552z"  horiz-adv-x="1024" />

    
    <glyph glyph-name="jindu1" unicode="&#58960;" d="M849.195 10.464a289.999 289.999 0 0 1 0 35.969 337.208 337.208 0 0 1-182.841 299.74 337.208 337.208 0 0 1 161.86 416.639 36.718 36.718 0 0 1 20.981 32.971 37.468 37.468 0 0 1-37.467 37.468h-599.48a37.468 37.468 0 0 1-37.468-37.468 36.718 36.718 0 0 1 20.982-33.72 337.208 337.208 0 0 1 161.86-415.89 337.208 337.208 0 0 1-182.842-299.74 289.999 289.999 0 0 1 0-35.97 37.468 37.468 0 0 1-37.468-38.965 37.468 37.468 0 0 1 37.468-37.468h672.917a37.468 37.468 0 0 1 38.966 37.468 37.468 37.468 0 0 1-37.468 38.966z m-599.48 635.449a260.025 260.025 0 0 0 25.478 112.403h473.59a262.273 262.273 0 1 0-499.068-112.403z m524.545-635.45H251.963a281.006 281.006 0 0 0 0 35.97 262.273 262.273 0 0 0 524.545 0 281.006 281.006 0 0 0-4.496-35.97zM705.32 530.513H318.655a224.805 224.805 0 0 1 386.665 0z"  horiz-adv-x="1024" />

    
    <glyph glyph-name="ruanjian" unicode="&#59064;" d="M512.00258 881.369585c-274.551211 0-497.372166-222.820955-497.372165-497.372165s222.820955-497.372166 497.372165-497.372166 497.372166 222.820955 497.372166 497.372166S786.54863 881.369585 512.00258 881.369585zM274.752476 585.933264c9.449132 15.915414 31.830828 34.813678 44.26797 45.759396 42.776545 34.813678 102.954769 61.674809 168.11301 66.649666 9.449132 1.491425 17.406839 1.491425 25.364546 1.491425h1.491425c58.691959 0 106.438201-17.406839 115.887332-22.381696-99.476497-15.419992-175.570135-126.332468-207.406123-172.091863-2.98285-4.974857-6.466282-9.449132-9.449132-12.431982-14.423989-17.406839-33.322253-31.830828-57.195373-34.813678-4.974857 0-9.449132-1.491425-12.431982-1.491425-10.940557 0-20.389689 1.491425-30.339403 6.466282-25.364546 10.940557-45.759395 33.322253-50.734252 63.661655-1.491425 4.974857-1.491425 9.449132-1.491425 14.423989 0 16.405675 4.474275 32.321089 13.923407 44.758231z m81.073655-453.604777c-15.915414 0-31.830828 4.974857-44.26797 14.423989-15.915414 9.449132-34.813678 30.339403-45.759396 44.26797-34.813678 42.771385-61.674809 101.463344-66.649666 166.621585-1.491425 9.449132-1.491425 17.406839-1.491425 26.855971 0 57.195374 17.406839 102.954769 22.381696 112.4039 15.915414-107.929626 149.209585-187.011274 182.536999-212.375819 17.406839-14.423989 30.339403-31.830828 34.813678-55.703949 1.491425-4.974857 1.491425-9.449132 1.491425-14.423989 0-39.788535-28.352556-74.607373-68.141092-81.073655-5.465118-0.996004-9.939393-0.996004-14.914249-0.996003z m410.828232 95.497644c0-17.406839-4.974857-33.322253-14.423989-47.746242-10.940557-15.915414-31.830828-34.813678-45.759395-45.759395-44.26797-34.813678-104.446194-60.183384-171.09586-65.158241-6.466282 0-14.423989-1.491425-20.389689-1.491425-61.674809 0-112.403901 18.898264-121.858193 23.873121 31.830828 4.974857 60.183384 18.898264 87.039355 38.297109 65.158241 49.237667 114.395908 126.82789 133.294172 150.706171l9.449131 9.449132c12.431982 10.940557 28.352556 20.389689 45.759396 22.381696 4.974857 0 9.449132 1.491425 12.431982 1.491425 41.27996 0 76.098798-30.339403 84.056504-71.123941 0-4.974857 1.491425-7.957707 1.491425-12.431982l0.005161-2.487428z m36.310263 39.788534c0 1.491425-1.491425 4.974857-1.491425 6.466282-20.389689 106.438201-150.706171 187.011274-182.536998 212.37582-17.406839 14.423989-30.339403 33.322253-34.813678 57.195374 0 4.974857-1.491425 9.449132-1.491425 12.431981 0 41.27996 30.339403 76.098798 71.123941 82.56508 4.974857 0 7.957707 1.491425 12.431982 1.491425 17.406839 0 33.322253-4.974857 47.746241-14.423988 15.915414-10.940557 34.813678-31.830828 45.759396-45.759396 34.813678-42.776545 60.183384-104.446194 65.158241-169.604435 0-7.957707 1.491425-14.423989 1.491425-22.381695 0.495421-62.16507-18.408003-110.907315-23.3777-120.356448z"  horiz-adv-x="1024" />

    
    <glyph glyph-name="tupian" unicode="&#58961;" d="M856.347 808.867h-687.4c-65.762 0-119.097-53.335-119.097-119.097v-563.124c-1.554-6.214-1.554-12.169 0-18.124v-30.55c0-65.763 53.335-119.098 119.097-119.098h687.4c65.763 0 119.098 53.335 119.098 119.097V689.77c0 65.762-53.335 119.097-119.098 119.097z m-687.4-72.494h687.4c25.632 0 46.604-20.971 46.604-46.603v-452.312c-26.927 36.506-59.55 76.378-93.466 107.965-20.195 18.9-45.309 26.667-72.753 22.784-43.238-6.214-90.618-42.202-144.73-109.777-12.945-16.052-24.596-32.105-34.175-45.827-47.64 65.763-141.364 187.19-220.849 243.114-23.56 16.57-49.969 20.454-76.895 11.651-29.257-9.58-57.737-34.434-86.734-75.86-16.83-23.82-33.917-53.335-51.264-88.028V689.77c0.259 25.89 20.972 46.603 46.862 46.603zM632 521.2a63 63 0 1 1 126 0 63 63 0 1 1-126 0z"  horiz-adv-x="1024" />

    
    <glyph glyph-name="company-register" unicode="&#58962;" d="M1001.335244 438.977524l-100.556778 100.534022V695.022978a77.983272 77.983272 0 0 1-77.755716 77.755716h-155.511432L566.977296 873.312716a77.983272 77.983272 0 0 1-109.95482 0l-100.534022-100.534022H200.977022a77.983272 77.983272 0 0 1-77.755716-77.755716v-155.511432L22.687284 438.977524a77.983272 77.983272 0 0 1 0-109.95482l100.534022-100.534022v-155.511432a77.983272 77.983272 0 0 1 77.755716-77.755716h155.511432l100.534022-100.534023a77.983272 77.983272 0 0 1 109.977576 0l100.511266 100.534023h155.511432a77.983272 77.983272 0 0 1 77.755716 77.755716v155.511432l100.556778 100.534022a77.983272 77.983272 0 0 1 0 109.95482zM511.999886 111.84373000000005L278.755494 539.511546h116.644951L511.999886 306.24439800000005l116.644952 233.267148h116.622196z"  horiz-adv-x="1024" />

    
    <glyph glyph-name="riqi" unicode="&#58940;" d="M526.533 34.463c-42.015 0-42.015 35.215-42.015 56.269V290.095h-63.07c-9.13 0-30.277 3.633-30.277 37.543 0 27.576 8.198 30.557 36.426 36.519l3.354 0.745 17.793 6.335c27.017 5.776 35.494 22.358 44.438 39.966 8.757 17.234 17.886 35.028 44.996 35.028 20.123 0 30.277-14.72 30.277-43.785v-311.621c0.093-37.45-14.067-56.362-41.922-56.362z m-216.038 593.99c-22.359 0-36.147 16.21-36.147 31.301V815.611c0 22.08 14.906 37.544 36.147 37.544h11.645c21.24 0 36.146-15.465 36.146-37.544v-149.615c0-22.08-14.906-37.544-36.146-37.544h-11.645z m379.534 0c-15.464 0-36.146 15.464-36.146 31.301V815.611c0 22.08 14.906 37.544 36.146 37.544h11.645c21.334 0 36.146-15.465 36.146-37.544v-149.615c0-22.08-14.905-37.544-36.146-37.544H690.03zM164.606-100.806c-71.454 0-129.586 61.58-129.586 137.225V641.122c0 75.646 58.132 137.225 129.586 137.225h77.043v-68.845h-82.912c-31.023 0-57.294-28.507-57.294-62.231v-55.99h809.283v55.99c0 33.724-26.272 62.23-57.294 62.23h-82.82v68.846h82.82c77.51 0 129.679-69.497 135.455-136.76V36.42c0-75.646-58.132-137.225-129.586-137.225H164.606zM107.312 36.42c0-33.724 26.271-62.23 57.294-62.23h688.92c37.17 0 63.069 28.134 63.069 68.472V516.287H107.312V36.42zM385.302 778.347h247.434v-68.845H385.302z"  horiz-adv-x="1024" />

    
    <glyph glyph-name="wenhao1" unicode="&#58916;" d="M463.303111 42.609778h104.391111v104.391111H463.303111zM736.369778 500.394667s0-64.227556-72.305778-128.512c-80.270222-56.206222-96.369778-56.206222-96.369778-144.497778H463.303111s-32.142222 128.455111 120.490667 208.782222c32.085333 16.042667 40.163556 32.085333 40.163555 96.369778 0 56.206222-40.163556 96.369778-96.426666 96.369778-56.206222 0-112.412444-7.964444-112.412445-120.490667H302.648889S286.606222 725.333333 511.431111 725.333333c224.938667 0 224.938667-224.881778 224.938667-224.881777M519.395556 816.355556C276.935111 816.355556 79.644444 622.364444 79.644444 383.943111c0-238.364444 197.290667-432.355556 439.751112-432.355555 242.460444 0 439.694222 193.991111 439.694222 432.355555 0 238.478222-197.233778 432.355556-439.751111 432.355556m0-944.355556c-286.321778 0-519.395556 229.717333-519.395556 512 0 282.339556 233.073778 512 519.395556 512 286.435556 0 519.395556-229.660444 519.395555-512 0-282.282667-232.96-512-519.395555-512"  horiz-adv-x="1080" />

    
    <glyph glyph-name="fangwen1" unicode="&#58917;" d="M512 567.908571a175.554286 175.554286 0 1 1 175.565714-175.554285A175.622857 175.622857 0 0 1 512 567.908571z m0-280.891428a105.337143 105.337143 0 1 0 105.337143 105.337143A105.417143 105.417143 0 0 0 512 287.028571zM829.977143 896H194.034286A194.034286 194.034286 0 0 1 0 701.965714v-635.942857A194.022857 194.022857 0 0 1 194.034286-128h635.942857A194.022857 194.022857 0 0 1 1024 66.022857V701.965714A194.022857 194.022857 0 0 1 829.977143 896zM512 129.028571c-175.554286 0-325.474286 109.2-386.217143 263.337143C186.525714 546.537143 336.445714 655.691429 512 655.691429c175.737143 0 325.474286-109.2 386.217143-263.337143C837.485714 238.217143 687.737143 129.028571 512 129.028571z"  horiz-adv-x="1024" />

    
    <glyph glyph-name="guanzhu1" unicode="&#58941;" d="M572.043832 807.790763l4.798927-4.798927 3.199284 3.199285C642.428094 866.977529 719.210926 892.571807 799.193043 895.771091c180.759583 6.398569 375.915948-142.368167 350.32167-383.914159-3.199285-30.393204-12.797139-83.181401-17.596066-94.378897-4.798927-12.797139-19.195708-30.393204-36.791773-30.393205-20.79535 0-36.791774 17.596066-36.791774 36.791774 0 6.398569 3.199285 17.596066 3.199285 17.596065 7.998212 23.994635 9.597854 47.98927 12.797138 70.384263 17.596066 164.76316-110.375321 311.930254-276.738123 308.73097-70.384263-1.599642-139.168883-43.190343-190.357437-92.779255l-4.798927-4.798927-25.594277-25.594278-25.594277 25.594278c-52.788197 51.188555-135.969598 97.578182-207.953503 97.578182-151.966021 0-279.937408-143.96781-267.140269-299.133116 11.197496-214.352072 348.722028-481.492341 502.287691-582.269808 11.197496-6.398569 17.596066-17.596066 17.596066-30.393204 0-20.79535-15.996423-36.791774-36.791774-36.791774-6.398569 0-19.195708 4.798927-19.195708 4.798927s-1.599642 0-1.599642 1.599642C415.278883-40.019672 32.964367 244.716663 2.571162 518.255501-19.82383 684.618304 104.948271 892.571807 343.294979 895.771091c78.382474 3.199285 164.76316-27.19392 228.748853-87.980328z m342.323458-443.100925c22.394993 0 41.590701-17.596066 41.590701-41.590701v-137.56924h134.369956c22.394993 0 39.991058-17.596066 39.991058-41.590701 0-17.596066-9.597854-33.592489-25.594277-38.391416l-3.199285-1.599642h-147.167094v-137.569241c0-22.394993-15.996423-39.991058-38.391416-41.5907H912.767648c-17.596066 0-33.592489 11.197496-39.991058 28.793562v150.366379h-147.167095c-15.996423 4.798927-27.19392 22.394993-27.193919 39.991058 0 22.394993 15.996423 39.991058 38.391416 41.590701h137.56924V335.896276c4.798927 15.996423 19.195708 27.19392 36.791774 28.793562h3.199284z"  horiz-adv-x="1152" />

    
    <glyph glyph-name="xiaolaba" unicode="&#58920;" d="M525.541 764.497L295.047 616.465h-114.99c-63.894 0-115.679-51.15-115.679-115.219v-230.898c0-63.665 51.151-115.22 115.68-115.22h114.989L525.54 7.213c32.582-14.13 57.84 0.98 57.84 33.043V731.454c0 32.121-25.892 46.826-57.84 33.043z m194.224-186.034c-10.842 11.65-29.122 12.284-40.712 1.385-11.65-10.9-12.227-29.123-1.385-40.771 5.363-5.766 14.532-18.512 23.99-37.772 16.146-32.871 25.892-71.45 25.892-115.508 0-44.059-9.746-82.694-25.892-115.508-9.458-19.26-18.627-32.005-23.99-37.772-10.9-11.648-10.265-29.871 1.385-40.77 11.648-10.9 29.871-10.265 40.77 1.384 9.054 9.688 21.51 26.988 33.621 51.727 19.895 40.483 31.775 87.654 31.775 140.996 0 53.342-11.88 100.514-31.775 140.996-12.17 24.625-24.626 41.984-33.68 51.613z m176.807 35.696c-23.298 39.444-46.826 66.779-63.318 81.484-11.88 10.61-30.103 9.572-40.715-2.365-10.61-11.937-9.573-30.102 2.365-40.712 2.71-2.421 8.131-7.843 15.397-16.262 12.456-14.416 24.911-31.601 36.619-51.44 33.504-56.86 53.63-123.349 53.63-199.066s-20.126-142.207-53.687-199.125c-11.707-19.837-24.221-37.022-36.62-51.439-7.265-8.418-12.686-13.84-15.397-16.261-11.88-10.61-12.916-28.834-2.364-40.714 10.553-11.88 28.834-12.917 40.713-2.364 16.494 14.705 40.022 41.982 63.32 81.484 38.522 65.336 61.645 141.745 61.645 228.419 0.059 86.615-23.066 163.024-61.588 228.361z"  horiz-adv-x="1024" />

    
    <glyph glyph-name="guanzhu2" unicode="&#58942;" d="M834.56 453.973c34.133 0 66.56-6.826 97.28-22.186 54.613 134.826-11.947 288.426-146.773 343.04-30.72 11.946-63.147 18.773-97.28 18.773-66.56 1.707-131.414-25.6-175.787-75.093l-29.013-35.84-27.307 32.426c-46.08 51.2-109.227 78.507-175.787 78.507-107.52 0-203.093-64.853-244.053-162.133-39.253-98.987-17.067-211.627 58.027-286.72l348.16-353.28c10.24-10.24 25.6-17.067 40.96-17.067s30.72 6.827 40.96 17.067l107.52 109.226c-64.854 110.934-29.014 254.294 81.92 320.854 37.546 20.48 78.506 32.426 121.173 32.426z m116.053-175.786h-58.026v58.026c1.706 22.187-10.24 40.96-27.307 52.907-27.307 17.067-63.147 6.827-80.213-20.48-6.827-10.24-8.534-22.187-8.534-32.427v-58.026h-58.026c-32.427 1.706-59.734-23.894-61.44-54.614 0-11.946 1.706-23.893 8.533-32.426 10.24-18.774 30.72-29.014 52.907-29.014h58.026v-58.026c-1.706-22.187 10.24-42.667 27.307-52.907 27.307-17.067 63.147-6.827 80.213 20.48 6.827 10.24 8.534 22.187 8.534 32.427v58.026h58.026c32.427 1.707 58.027 29.014 56.32 61.44-1.706 29.014-25.6 52.907-56.32 54.614z"  horiz-adv-x="1024" />

    
    <glyph glyph-name="jinzhi1" unicode="&#58923;" d="M512 896c283.062857 0 512-228.937143 512-512s-228.937143-512-512-512-512 228.937143-512 512 228.937143 512 512 512z m327.972571-247.808L247.954286 55.954286c72.411429-58.514286 164.352-93.622857 264.118857-93.622857 231.862857 0 421.668571 189.732571 421.668571 421.668571 0 99.766857-35.108571 191.780571-93.622857 264.192zM512 805.668571C280.137143 805.668571 90.331429 615.862857 90.331429 384c0-99.766857 35.108571-191.707429 93.622857-264.118857l592.237714 592.091428A419.254857 419.254857 0 0 1 512 805.595429z"  horiz-adv-x="1024" />

    
    <glyph glyph-name="fangwen2" unicode="&#58992;" d="M517.632 229.376c-22.528-14.336-36.352-39.424-36.352-66.56V-92.16c0-3.584 0-6.656 0.512-10.24H78.848C35.328-101.888 0-66.56 0-23.04v87.04c0 91.648 74.24 165.888 165.888 165.888l351.744-0.512zM356.352 846.848h125.44c94.208 0 170.496-76.288 170.496-170.496v-155.648c0-94.208-76.288-170.496-170.496-170.496H356.352c-94.208 0-170.496 76.288-170.496 170.496V676.352C185.344 770.56 261.632 846.848 356.352 846.848zM771.584 21.504c-0.512-2.56-1.024-5.12-1.024-8.192v-31.232c0-17.408 14.336-31.744 31.744-31.744h0.512c17.408 0 31.744 14.336 31.744 31.744v31.232c0 2.56-0.512 5.632-1.024 8.192 19.968 10.752 32.768 31.744 32.768 54.784 0 34.816-28.16 62.976-63.488 62.976-34.816 0-63.488-28.16-63.488-62.976-0.512-22.528 12.288-43.52 32.256-54.784z m187.904-133.12h-330.752c-36.864 0-64.512 27.648-64.512 64.512V168.96c0 36.864 27.648 64.512 64.512 64.512h330.752c36.864 0 64.512-27.648 64.512-64.512v-211.456c4.096-41.472-28.16-69.12-64.512-69.12zM944.64 202.24h-285.184v143.872c0 55.808 46.08 107.008 96.768 107.008h87.552c55.296 0 96.768-46.592 96.768-107.008v-143.872h4.096z m-221.696 32.256h158.208v95.744c0 31.744-19.968 59.904-47.104 59.904h-64c-27.136 0-47.104-28.16-47.104-59.904v-95.744z"  horiz-adv-x="1024" />

    
    <glyph glyph-name="zhuyi1" unicode="&#58949;" d="M508.416 891.392C229.376 891.392 5.12 668.16 4.608 390.144c-0.512-279.552 221.696-505.344 498.176-506.88 283.648-1.536 509.952 220.672 510.464 501.248 0 282.624-223.232 506.88-504.832 506.88z m1.536-943.616c-247.808-0.512-441.344 194.56-440.32 442.88 1.024 244.224 195.584 436.736 440.832 436.224 244.224-0.512 437.248-194.56 437.248-439.808 0-244.736-193.536-438.784-437.76-439.296zM508.416 657.408c-50.688 0-57.856-21.504-54.784-62.976L459.264 471.04c0-54.272-0.512-77.824 0-132.096 0.512-35.328 19.968-47.104 55.296-46.08 36.352 1.024 35.84 22.016 36.864 47.104 3.072 95.232 6.144 159.744 11.776 254.976 2.56 41.984-4.608 62.464-54.784 62.464zM446.470785 120.743578a58.368 58.368 0 1 1 113.611568 26.827326 58.368 58.368 0 1 1-113.611568-26.827326Z"  horiz-adv-x="1025" />

    
    <glyph glyph-name="iconset02841" unicode="&#58924;" d="M512 884.622C234.382 884.622 11.378 661.6179999999999 11.378 384s223.005-500.622 500.622-500.622 500.622 223.005 500.622 500.622S789.618 884.622 512 884.622ZM512 839.111c168.391 0 314.027-91.0222 393.671-227.555L512 611.5550000000001c-116.053 0-211.627-86.4711-225.28-200.249L145.635 654.7909999999999C229.831 766.293 361.813 839.111 512 839.111ZM350.435 299.80499999999995C336.782 324.83500000000003 329.955 354.418 329.955 384c0 100.124 81.92 182.045 182.045 182.045 100.124 0 182.045-81.92 182.045-182.045s-81.92-182.045-182.045-182.045c-68.2667 0-127.431 38.6845-159.289 93.2978l0 0L350.435 299.80499999999995ZM461.938-68.83500000000003C234.382-43.80499999999995 56.889 149.61800000000005 56.889 384c0 81.92 22.7555 161.565 61.44 227.555l191.147-332.231c38.6845-72.8178 113.778-122.88 202.525-122.88 31.8578 0 61.44 6.82667 88.7467 18.2045L461.938-68.83500000000003ZM512-71.11099999999999l197.973 341.333 0 0c18.2045 34.1333 29.5822 70.5422 29.5822 111.502 0 75.0933-36.4089 141.085-91.0222 182.045l279.893 0c25.0311-56.8889 38.6845-118.329 38.6845-182.045C967.111 133.68899999999996 764.587-71.11099999999999 512-71.11099999999999Z"  horiz-adv-x="1024" />

    
    <glyph glyph-name="xiazai1" unicode="&#59080;" d="M1251.23 158.403v-203.32c0-16.858-6.02-31.307-17.717-43.176-11.869-11.869-26.318-17.717-43.175-17.717h-935.07c-16.856 0-31.306 5.848-43.175 17.717-11.869 11.87-17.717 26.318-17.717 43.176v203.32c0 16.858 5.848 31.307 17.717 43.176 11.87 11.869 26.319 17.717 43.176 17.717h295.348l85.663-86.35c24.598-23.739 53.325-35.608 86.351-35.608s61.753 11.87 86.351 35.607l86.351 86.351h294.66c16.858 0 31.307-6.02 43.176-17.717 12.041-11.869 18.062-26.318 18.062-43.176z m-206.416 361.402c7.224-17.373 4.3-32.166-8.945-44.38L751.358 190.743c-7.569-8.085-17.202-12.04-28.555-12.04-11.353 0-20.985 3.955-28.554 12.04L409.738 475.253c-13.073 12.213-16.17 27.007-8.945 44.38 7.224 16.513 19.61 24.77 37.499 24.77h162.553V829.087c0 11.008 3.957 20.47 12.041 28.554 8.085 8.085 17.546 12.04 28.555 12.04h162.553c11.009 0 20.47-3.955 28.554-12.04 8.085-8.085 12.041-17.546 12.041-28.554v-284.512h162.554c17.89 0 30.446-8.257 37.67-24.77z m-49.54-532.212c8.084 8.085 12.04 17.546 12.04 28.555s-3.956 20.47-12.04 28.554c-8.085 8.085-17.546 12.041-28.555 12.041s-20.47-3.956-28.554-12.04c-8.085-8.085-12.041-17.546-12.041-28.555 0-11.01 3.956-20.47 12.041-28.555 8.085-8.084 17.545-12.04 28.554-12.04 11.01 0 20.47 3.956 28.555 12.04z m162.553 0c8.085 8.085 12.041 17.546 12.041 28.555s-3.956 20.47-12.041 28.554c-8.085 8.085-17.545 12.041-28.554 12.041-11.01 0-20.47-3.956-28.555-12.04-8.084-8.085-12.04-17.546-12.04-28.555 0-11.01 3.956-20.47 12.04-28.555 8.085-8.084 17.546-12.04 28.555-12.04s20.47 3.956 28.554 12.04z"  horiz-adv-x="1448" />

    
    <glyph glyph-name="xiazai2" unicode="&#58952;" d="M1023.914667 384a512 512 0 1 0-512 512 512 512 0 0 0 512-512z m-90.368 0a421.632 421.632 0 1 1-421.632-421.632 421.973333 421.973333 0 0 1 421.632 421.632z m-369.664 273.066667v-345.429334L669.44 419.669333l72.874667-74.154666-230.4-234.581334-230.4 234.581334 72.704 74.154666 106.496-109.482666V657.066667z"  horiz-adv-x="1024" />

    
    <glyph glyph-name="jiami1" unicode="&#58925;" d="M0.02153 384a512 511.97847 90 1 1 1023.95694 0 512 511.97847 90 1 1-1023.95694 0ZM502.742189 299.86157v-63.38371a24.759262 24.759262 0 0 1 49.518523 0v63.38371a46.073756 46.073756 0 0 1 24.759262 40.411421 49.518523 49.518523 0 0 1-99.037046 0 46.138346 46.138346 0 0 1 24.759261-40.411421zM279.908835 480.216644h495.185232v-349.859132H279.908835v349.859132z m148.555569 0h198.074093v69.971826a99.209285 99.209285 0 0 1-198.074093 0v-69.971826z m99.037047 209.915478a144.443379 144.443379 0 0 0 148.555569-139.943652v-69.971826H378.945881v69.971826a144.443379 144.443379 0 0 0 148.55557 139.943652z m0 0"  horiz-adv-x="1024" />

    
    <glyph glyph-name="shoucang" unicode="&#58927;" d="M512 875.52C240.64 875.52 20.48 655.36 20.48 384s220.16-491.52 491.52-491.52 491.52 220.16 491.52 491.52-220.16 491.52-491.52 491.52z m211.968-538.112c-53.76-83.968-187.904-188.416-194.048-192.512-5.632-4.096-11.776-6.144-18.432-6.144s-12.8 2.048-18.432 6.144c-5.632 4.096-140.288 108.544-194.048 192.512-18.432 28.672-41.472 65.024-41.472 116.224C258.56 539.136 322.56 609.28 400.896 609.28c43.52 0 84.48-22.016 111.104-57.856 26.624 36.352 67.584 57.856 111.104 57.856 78.848 0 142.336-70.144 142.336-155.648 0-51.2-23.04-87.552-41.472-116.224z"  horiz-adv-x="1024" />

    
    <glyph glyph-name="jiami2" unicode="&#59560;" d="M512-42.666667A426.666667 426.666667 0 1 1 512 810.666667a426.666667 426.666667 0 0 1 0-853.333334z m0-85.333333A512 512 0 1 0 512 896a512 512 0 0 0 0-1024z m-72.362667 640h170.752v20.906667h-0.085333a85.333333 85.333333 0 1 1-170.666667 0V512z m256.085334 0h3.754666a85.333333 85.333333 0 0 0 85.333334-85.333333v-256a85.333333 85.333333 0 0 0-85.333334-85.333334h-341.333333a85.333333 85.333333 0 0 0-85.333333 85.333334v256a85.333333 85.333333 0 0 0 81.493333 85.248v25.6a170.752 170.752 0 0 0 341.333333-4.608h0.085334V512z m-337.578667-85.333333v-256h341.333333v256h-341.333333z"  horiz-adv-x="1024" />

    
    <glyph glyph-name="fangwen3" unicode="&#58928;" d="M607.923871-127.87137600000005a218.212587 218.212587 0 0 0-146.541591 49.913729 135.023038 135.023038 0 0 0-37.755257 124.144405 376.272731 376.272731 0 0 0 10.878633 42.234694c15.358071 50.553649 23.677026 88.308906-4.479437 123.504485a169.578697 169.578697 0 0 1-44.154453 26.236704C321.879805 269.51870199999996 208.614034 320.072351 250.848728 473.013138A300.762217 300.762217 0 0 0 513.855688 644.511593c5.119357 0 315.480368 17.917749 369.233615-274.525513 31.356061-174.058134-3.839518-447.943727-231.650899-494.657858a239.329934 239.329934 0 0 0-43.514533-3.199598zM309.721332 455.095389c-24.956865-92.788343 24.316945-124.144404 101.747218-161.259742a191.975883 191.975883 0 0 0 63.991961-42.874614 184.296848 184.296848 0 0 0 15.358071-180.45733 206.694034 206.694034 0 0 1-8.958874-33.915739 73.590755 73.590755 0 0 1 19.197588-69.751238 173.418214 173.418214 0 0 1 135.662957-30.716141c205.414195 40.314935 200.934758 319.959805 182.377089 422.986862C774.942889 597.797462 526.65408 583.7192299999999 513.855688 583.079311a244.449291 244.449291 0 0 1-204.134356-127.983922zM897.807454 512.048234a99.827459 99.827459 0 1 0 99.827459 99.827459A99.827459 99.827459 0 0 0 897.807454 512.048234z m0 135.023038A35.835498 35.835498 0 1 1 897.807454 576.040195a35.835498 35.835498 0 0 1 0 71.031077zM169.578938 556.842607a169.578697 169.578697 0 1 0 169.578697 169.578696A169.578697 169.578697 0 0 0 169.578938 556.842607z m0 275.165432a104.946816 104.946816 0 1 1 104.946816-105.586736A105.586736 105.586736 0 0 1 169.578938 832.008039z m559.929659-169.578697a100.467379 100.467379 0 1 0 99.827459 99.18754 99.827459 99.827459 0 0 0-99.827459-99.827459z m0 135.662958a35.835498 35.835498 0 1 1 35.835498-35.835499 35.835498 35.835498 0 0 1-35.835498 35.195579z m-244.449291-127.983922A111.985932 111.985932 0 1 0 597.045237 782.734229a111.985932 111.985932 0 0 0-111.985931-111.985932z m0 159.979902a47.993971 47.993971 0 0 1-47.354052-47.993971 47.354051 47.354051 0 1 1 94.708103 0A47.993971 47.993971 0 0 1 485.059306 832.008039z"  horiz-adv-x="1025" />

    
    <glyph glyph-name="weigui-copy" unicode="&#58930;" d="M583.52 58.01142845000004a68.77714313 68.77714313 0 0 0-65.41714313 39.2914284 66.17142843 66.17142843 0 0 0 12.82285781 74.12571472 69.6 69.6 0 0 0 74.88000006 16.11428528 67.2 67.2 0 0 0 43.33714212-61.98857152 65.00571468 65.00571468 0 0 0-18.51428529-47.1771422 67.68 67.68 0 0 0-47.10857157-20.36571468zM649.14285689 662.40000002l-20.77714219-335.86285689H532.77714313L512 662.46857157h137.14285689z m471.63428624-612.61714315L656.34285686 826.01142843A94.21714313 94.21714313 0 0 1 580.64 863.99999999c-29.89714311 0-58.01142845-14.12571468-75.70285685-37.98857156L40.9142853 50.74285686999997a86.1942853 86.1942853 0 0 1-8.84571373-37.92000002c0.68571467-49.92 42.0342853-89.82857157 92.43428532-89.21142842h912.27428622a90.92571471 90.92571471 0 0 1 92.43428534 89.14285687c0 12.82285687-2.81142846 25.50857153-8.36571375 37.09714313z"  horiz-adv-x="1170" />

    
    <glyph glyph-name="weigui" unicode="&#58931;" d="M863.959 767.967a487.457 487.457 0 0 0-155.615 36.6 883.646 883.646 0 0 0-166.681 76.8L512 896l-25.93-14.633a1057.363 1057.363 0 0 0-166.681-76.8 707.617 707.617 0 0 0-155.582-36.6l-48.194-3.634v-504.666C115.613 73.167 467.572-128 512-128c40.729 0 396.387 201.497 396.387 387.667V764.333zM380.928 413.432h151.486v42.347H411.086v67.254h121.328V565.38H390.87v69.665h141.378V692.29h80.698v-57.245h179.266v-69.797H612.947v-42.347h143.921v-67.254H612.947V413.3h184.287a933.822 933.822 0 0 0-5.021-102.17 70.557 70.557 0 0 0-75.776-77.262h-22.76a353.445 353.445 0 0 0-37.822-2.477 493.403 493.403 0 0 1-15.161 74.455 409.864 409.864 0 0 1 55.527-2.445q20.15 2.412 20.15 39.837H612.88v-139.495h-80.698v139.76H380.862V413.3zM295.044 684.99q45.42-57.311 80.731-109.634l-70.656-44.858a1235.605 1235.605 0 0 1-73.001 114.622z m507.277-513.288q-10.207-34.882-15.162-49.813-63.059 2.577-131.237 2.51H509.589q-131.37 0-186.798 52.29a608.421 608.421 0 0 1-73.166-67.253l-35.378 82.217a852.232 852.232 0 0 0 65.635 57.278V403.456h-63.091v77.23h141.345v-239.22a196.046 196.046 0 0 1 143.822-49.813h159.017q73.233 0 148.877 2.478c-2.51-7.466-5.054-14.931-7.531-22.43z m0 0"  horiz-adv-x="1024" />

    
    <glyph glyph-name="fenlei-on" unicode="&#58932;" d="M733.62445068-12.422424330000013a174.7501831 174.7501831 0 1 0 174.79797363 174.79797365c0-96.56323242-78.28170777-174.79797364-174.79797363-174.79797365z m0 299.62518312A124.82803344 124.82803344 0 1 1 858.45413209 162.37554932 124.82803344 124.82803344 0 0 1 733.62445068 287.20275877999995z m107.11010742-231.93731689a24.9845581 24.9845581 0 0 0 34.21884156 0l51.42178343-51.46875a24.9845581 24.9845581 0 0 0-32.95321653-35.4375l-51.42178346 51.42178344a24.9845581 24.9845581 0 0 0 0 34.21966553l-1.265625 1.26480103zM358.06259156 788.76599122H232.67178345A125.8126831 125.8126831 0 0 1 107.23400878 663.3751830900001V537.984375a125.8126831 125.8126831 0 0 1 125.39080813-125.48474122H358.015625a125.8126831 125.8126831 0 0 1 125.43777466 125.43777466V663.32821655A125.8126831 125.8126831 0 0 1 358.06259156 788.76599122z m438.98400878-1e-8H671.60964966a125.8126831 125.8126831 0 0 1-125.3908081-125.39080812V537.984375a125.8126831 125.8126831 0 0 1 125.3908081-125.43777466H797.04577637a125.8126831 125.8126831 0 0 1 125.43777465 125.43777466V663.32739258A125.8126831 125.8126831 0 0 1 796.99963379 788.76681518zM358.06259156 349.78033449H232.67178345A125.8126831 125.8126831 0 0 1 107.23400878 224.39035034000005V98.95422363A125.8126831 125.8126831 0 0 1 232.67260742-26.484375h125.3908081a125.8126831 125.8126831 0 0 1 125.43777466 125.43777466V224.39035034000005a125.8126831 125.8126831 0 0 1-125.43777466 125.3908081z"  horiz-adv-x="1024" />

    
    <glyph glyph-name="tongzhi1" unicode="&#59009;" d="M512-114.25585c-274.518114 0-498.195035 223.676921-498.195035 498.195035 0 274.518114 223.676921 498.195035 498.195035 498.195035 274.518114 0 498.195035-223.676921 498.195035-498.195035 0-274.518114-223.676921-498.195035-498.195035-498.195035z m0 955.03599C259.861741 840.78014 55.159045 635.955814 55.159045 383.939185c0-252.138259 204.702696-456.840955 456.840955-456.840955S968.840955 131.800926 968.840955 383.939185c0 252.016629-204.824326 456.840955-456.840955 456.840955z m0 0M444.130657 656.389595l-106.79083-76.261789c-13.500891-10.21689-28.826226-16.906521-44.029933-20.312151l-38.921487-10.21689c-1.702815 0-3.40563 0-3.40563-1.702815-38.921487-16.906521-66.044898-59.355268-66.044898-106.790831v-111.777645c0-47.435562 25.420596-88.059865 66.044898-106.790831 1.702815 0 1.702815-1.702815 3.40563-1.702815l28.826227-6.81126c23.717781-6.81126 45.732747-16.906521 66.044898-32.231857l96.57394-69.450528c22.014966-15.203706 45.732747-23.717781 71.153344-23.717781 20.312151 0 42.327117 5.108445 59.355267 16.906521 33.934672 22.014966 54.246823 57.652453 54.246823 94.871125V568.208101c0 27.123411-10.21689 52.544008-28.826226 72.856158-40.745932 44.029932-108.493645 50.841193-157.632023 15.325336z m133.792612-454.165103c0-20.312151-11.798076-38.921487-30.529042-52.544007-22.014966-13.500891-49.138377-11.919705-72.856158 5.108445l-96.57394 69.450528c-25.420596 18.609336-54.246823 32.231857-83.073049 38.921487l-27.123412 6.811261c-20.312151 10.21689-33.934672 33.934672-33.934671 59.355268V441.105119c0 25.420596 13.500891 49.138377 33.934671 59.355268l37.218672 10.216891c22.014966 5.108445 42.327117 15.203706 60.936454 28.826226l106.79083 76.261789c28.826226 20.312151 67.747714 16.906521 89.76268-6.81126 6.81126-8.514075 15.203706-22.014966 15.203706-38.921488v-367.808053z m235.474997 286.437819L794.78893 553.004395c-3.40563 13.500891-18.609336 20.312151-32.231857 16.906521-13.500891-3.40563-20.312151-18.609336-16.906521-32.231857l18.609336-64.342083c18.609336-64.342083 18.609336-132.211427 0-194.850695l-18.609336-64.342083c-3.40563-13.500891 3.40563-27.123411 16.906521-32.231857 1.702815 0 5.108445-1.702815 6.811261-1.702815 10.21689 0 20.312151 6.81126 23.717781 18.609336l18.609336 64.342083c23.717781 74.680603 23.717781 152.645207 1.702815 225.501366z m0 0"  horiz-adv-x="1024" />

    
    <glyph glyph-name="xingtaiduICON_sousuo--" unicode="&#58933;" d="M222.6944 673.2032A323.1488 323.1488 0 0 1 133.6832 384c19.2512 87.3728 64.512 172.7488 135.0144 243.3024C339.2512 697.8815999999999 424.6272 743.1168 512 762.3679999999999c-101.632 19.1488-210.688-10.5216-289.3056-89.1648zM989.44 73.88160000000005l-121.7024 121.7024a118.016 118.016 0 0 1-92.8 34.1248c114.4576 165.5552 97.92 394.3936-49.4848 541.824-165.9392 165.9904-435.0464 165.9904-601.0368 0-165.9392-165.9904-165.9392-435.1232 0-601.1136 147.4048-147.4304 376.064-163.84 541.7216-49.3824-2.56-33.28 8.8576-67.5328 34.1248-92.8l121.7024-121.728c46.08-45.9776 121.3696-45.9776 167.3472 0 46.208 45.9776 46.208 121.2928 0.128 167.3728zM676.096 219.904c-138.6752-138.6752-363.392-138.6752-502.016 0-138.6752 138.6752-138.6752 363.4432 0 502.1184 138.624 138.6752 363.3408 138.6752 502.016 0 138.6496-138.5728 138.6496-363.4432 0-502.1184z"  horiz-adv-x="1024" />

    
    <glyph glyph-name="table" unicode="&#58943;" d="M0 896m46.029795 0l92.059591 0q46.029795 0 46.029795-46.029795l0-92.059591q0-46.029795-46.029795-46.029795l-92.059591 0q-46.029795 0-46.029795 46.029795l0 92.059591q0 46.029795 46.029795 46.029795ZM276.178772 896m46.029795 0l828.536316 0q46.029795 0 46.029795-46.029795l0-92.059591q0-46.029795-46.029795-46.029795l-828.536316 0q-46.029795 0-46.029795 46.029795l0 92.059591q0 46.029795 46.029795 46.029795ZM0 527.761638m46.029795 0l92.059591 0q46.029795 0 46.029795-46.029796l0-92.05959q0-46.029795-46.029795-46.029796l-92.059591 0q-46.029795 0-46.029795 46.029796l0 92.05959q0 46.029795 46.029795 46.029796ZM276.178772 527.761638m46.029795 0l828.536316 0q46.029795 0 46.029795-46.029796l0-92.05959q0-46.029795-46.029795-46.029796l-828.536316 0q-46.029795 0-46.029795 46.029796l0 92.05959q0 46.029795 46.029795 46.029796ZM0 159.523275m46.029795 0l92.059591 0q46.029795 0 46.029795-46.029795l0-92.059591q0-46.029795-46.029795-46.029795l-92.059591 0q-46.029795 0-46.029795 46.029795l0 92.059591q0 46.029795 46.029795 46.029795ZM276.178772 159.523275m46.029795 0l828.536316 0q46.029795 0 46.029795-46.029795l0-92.059591q0-46.029795-46.029795-46.029795l-828.536316 0q-46.029795 0-46.029795 46.029795l0 92.059591q0 46.029795 46.029795 46.029795Z"  horiz-adv-x="1331" />

    
    <glyph glyph-name="weiruan" unicode="&#58905;" d="M454.656 32.768l-1.024 343.04 455.68-2.048 0-409.6zM453.632 752.64l455.68 68.608 0-378.88-455.68 0 0 310.272zM65.536 376.832l325.632-1.024 0-336.896-325.632 52.224 0 285.696zM65.536 442.368l0 251.904 325.632 52.224 0-304.128-325.632 0z"  horiz-adv-x="1024" />

    
    <glyph glyph-name="iconset0284" unicode="&#59063;" d="M512 853.333333C251.733333 853.333333 42.666667 644.266667 42.666667 384s209.066667-469.333333 469.333333-469.333333 469.333333 209.066667 469.333333 469.333333S772.266667 853.333333 512 853.333333zM512 810.666667c157.866667 0 294.4-85.333333 369.066667-213.333333L512 597.333333c-108.8 0-198.4-81.066667-211.2-187.733333L168.533333 637.866667C247.466667 742.4 371.2 810.666667 512 810.666667zM360.533333 305.066667C347.733333 328.533333 341.333333 356.266667 341.333333 384c0 93.866667 76.8 170.666667 170.666667 170.666667 93.866667 0 170.666667-76.8 170.666667-170.666667s-76.8-170.666667-170.666667-170.666667c-64 0-119.466667 36.266667-149.333333 87.466667l0 0L360.533333 305.066667zM465.066667-40.533333C251.733333-17.066667 85.333333 164.266667 85.333333 384c0 76.8 21.333333 151.466667 57.6 213.333333l179.2-311.466667c36.266667-68.266667 106.666667-115.2 189.866667-115.2 29.866667 0 57.6 6.4 83.2 17.066667L465.066667-40.533333zM512-42.666667l185.6 320 0 0c17.066667 32 27.733333 66.133333 27.733333 104.533333 0 70.4-34.133333 132.266667-85.333333 170.666667l262.4 0c23.466667-53.333333 36.266667-110.933333 36.266667-170.666667C938.666667 149.333333 748.8-42.666667 512-42.666667z"  horiz-adv-x="1024" />

    
    <glyph glyph-name="aliyun" unicode="&#58908;" d="M952.73984 670.07488c26.74688-152.33024 26.74688-416.86016 0-572.28288-18.52416-110.1312-42.17856-135.86432-154.32704-155.42272-154.32704-24.69888-414.62784-26.75712-572.04736 1.03424C115.2512-37.03808 91.58656-14.39744 72.0384 97.792c-27.78112 153.36448-27.78112 415.82592 0 572.28288C91.58656 780.20608 114.21696 804.90496 226.36544 824.46336 379.65824 852.25472 643.05152 851.23072 798.4128 823.43936 909.52704 803.88096 933.19168 781.23008 952.73984 670.07488L952.73984 670.07488 952.73984 670.07488zM368.34304 724.62336c-49.38752 0-90.54208-40.1408-90.54208-89.5488 0-50.432 41.15456-90.5728 90.54208-90.5728 16.46592 0 31.8976 4.11648 45.27104 12.34944 94.65856 54.54848 102.88128 56.60672 198.57408-1.03424 13.37344-7.20896 28.80512-12.34944 45.27104-12.34944 49.38752 0 89.50784 40.1408 89.50784 90.5728 0 49.408-39.09632 90.5728-89.50784 90.5728-16.46592 0-31.8976-5.15072-45.27104-12.34944-97.7408-55.58272-100.82304-55.58272-198.57408 0C400.24064 720.50688 384.80896 724.62336 368.34304 724.62336L368.34304 724.62336 368.34304 724.62336zM801.49504 293.35552c49.38752 0 89.50784 40.1408 89.50784 90.5728 0 49.408-40.12032 89.5488-89.50784 89.5488-16.46592 0-31.8976-4.11648-45.27104-11.32544-95.68256-54.54848-132.72064-46.31552-211.94752-13.38368l-12.34944 4.11648c-6.17472 2.05824-12.34944 3.09248-19.54816 3.09248-5.14048 0-11.3152-1.03424-18.52416-2.05824l-12.34944-5.15072c-84.36736-32.94208-115.23072-42.19904-212.97152 14.40768-13.37344 7.20896-28.80512 11.32544-44.2368 11.32544-50.41152 0-90.54208-40.1408-90.54208-89.5488 0-50.432 40.13056-90.5728 89.50784-90.5728 16.46592 0 31.8976 4.11648 45.27104 12.34944 90.54208 52.49024 138.89536 48.37376 157.41952 31.90784 7.19872-4.11648 1.024-10.2912-14.40768-29.8496-23.66464-27.79136-73.05216-67.93216-117.28896-109.1072-18.52416-17.50016-27.78112-39.1168-27.78112-64.83968 0-50.432 40.13056-90.5728 89.50784-90.5728 11.3152 0 22.6304 2.05824 33.95584 5.15072 86.4256 23.67488 156.38528 64.83968 201.65632 86.45632 12.34944 7.20896 5.14048-3.09248 17.48992-32.93184 8.23296-22.64064 34.97984-56.60672 74.07616-59.6992 59.67872-6.17472 92.60032 45.29152 79.22688 93.66528-16.46592 58.66496-76.1344 100.87424-138.89536 76.16512-66.87744-27.79136-126.54592-41.17504-192.39936-41.17504-12.34944 1.03424-11.3152 5.15072-8.23296 12.34944 8.23296 29.8496 58.64448 115.28192 117.28896 144.09728 59.67872 27.79136 110.09024 38.08256 215.02976-22.64064C768.57344 298.50624 784.00512 293.35552 801.49504 293.35552L801.49504 293.35552z"  horiz-adv-x="1024" />

    
    <glyph glyph-name="jinzhi" unicode="&#58984;" d="M872.978936 740.733751C776.940626 836.205149 649.267828 888.836857 513.502725 888.836857 377.741715 888.836857 250.066871 836.205149 154.028561 740.733751 57.990251 645.120113 5.07611 518.011156 5.07611 382.819105c0-135.336338 52.912094-262.441201 148.953474-357.914646 96.03831-95.614661 223.713154-148.09799 359.474164-148.09799 135.765103 0 263.437901 52.625568 359.475188 148.09799 96.03831 95.614661 148.953474 222.725664 148.953474 358.056885-0.001023 135.052882-52.910047 262.158768-148.953474 357.772407zM767.714498 346.363821H549.819862h-72.633251c290.528909 0 0 0 0 0H259.289929c-20.001543 0-36.316114 16.314571-36.316113 36.317137 0 20.001543 16.314571 36.317137 36.316113 36.317137H767.715521c20.147876 0 36.32123-16.315594 36.32123-36.317137-0.001023-20.002566-16.173354-36.317137-36.322253-36.317137z"  horiz-adv-x="1024" />

    
    <glyph glyph-name="fangwen" unicode="&#58909;" d="M512-128C229.6832-128 0 101.6832 0 384S229.6832 896 512 896s512-229.6832 512-512-229.6832-512-512-512z m0 972.8C257.92 844.8 51.2 638.08 51.2 384s206.72-460.8 460.8-460.8 460.8 206.72 460.8 460.8S766.08 844.8 512 844.8zM814.464 568.0896c13.184 45.7216 17.3056 134.9376-64.5632 145.9712-65.8176 8.9344-143.6928-34.9696-184.7808-62.1824a342.1952 342.1952 0 0 1-42.624 3.2768c-106.6752 1.408-176-34.944-234.6496-111.7184-21.6064-28.2112-40.8576-76.1856-46.8736-130.4576 30.3104 51.5328 120.8576 144.4864 218.0864 182.7072 0 0-145.9968-104.2688-217.5232-253.2352l-0.1792-0.1792c0.1024-0.7424 0.1024-1.4336 0.1792-2.2016-3.0464-6.784-6.272-13.4656-9.088-20.6336-71.2448-175.1296-12.9536-250.88 40.32-264.9344 49.1008-12.9024 118.2976 11.136 173.2096 70.0928 94.1056-22.0672 186.496 2.7648 221.696 22.016 66.0992 36.224 110.8736 100.1984 121.5488 166.0416h-180.3008s-7.6032-58.24-104.2688-58.24c-89.088 0-92.8768 103.1424-92.8768 103.1424h383.0272s7.1936 111.1552-47.744 185.2416c-30.464 41.1392-72.1664 77.3632-130.2272 96.9216 17.792 13.0816 48.4352 33.5104 74.2656 40.192 49.024 12.8 82.6368 5.2224 103.7056-30.464 28.5696-48.5376-15.7696-162.0736-15.7696-162.0736s21.6832 32.9216 35.4304 80.7168z m-395.776-435.712c-75.776-61.6704-138.6496-54.9376-162.8928-17.7408-20.992 32.4352-24.8064 90.7008-0.1536 170.112a239.1808 239.1808 0 0 1 56.4224-87.04 275.456 275.456 0 0 1 106.624-65.3312z m-2.7392 320.512s3.8144 73.088 83.2512 79.744c69.4016 5.7856 105.216-24.5248 115.9168-83.328l-199.168 3.584z"  horiz-adv-x="1024" />

    
    <glyph glyph-name="xiazai" unicode="&#58939;" d="M483.361 562.82h60.073c16.597 0 30.046 13.448 30.046 30.037 0 16.587-13.449 30.035-30.046 30.035h-60.073c-16.597 0-30.045-13.448-30.045-30.035 0-16.588 13.449-30.037 30.045-30.037zM511.998 864.625C246.559 864.625 31.373 649.441 31.373 384c0-265.438 215.186-480.625 480.625-480.625 265.435 0 480.629 215.188 480.629 480.625 0 265.441-215.194 480.625-480.629 480.625z m0.001-919.168C269.802-54.543 73.445 141.795 73.445 384c0 242.196 196.357 438.553 438.553 438.553 242.201 0 438.538-196.357 438.538-438.553 0-242.205-196.337-438.543-438.537-438.543zM662.852 322.458H573.48V472.703c0 16.587-13.449 30.035-30.046 30.035h-60.073c-16.597 0-30.045-13.448-30.045-30.035v-150.245H362.54c-14.741 0-27.262-10.938-29.117-25.568-1.767-13.767 1.965-28.262 11.173-38.854l140.086-161.082c15.469-17.789 40.555-17.789 56.033 0l140.08 161.082c9.209 10.582 12.939 25.087 11.184 38.854-1.867 14.631-14.377 25.568-29.127 25.568z"  horiz-adv-x="1024" />

    
    <glyph glyph-name="wenhao" unicode="&#59752;" d="M511.488 896a511.488 511.488 0 1 1 0-1022.976 511.488 511.488 0 0 1 0 1022.976z m-3.2768-811.008a53.248 53.248 0 0 0-53.76 52.736 53.248 53.248 0 0 0 53.76 52.736c29.696 0 53.76-23.552 53.76-52.736a53.248 53.248 0 0 0-53.76-52.6336z m202.752 360.0384c-14.7456-23.2448-46.1824-54.9888-94.4128-95.0272-24.9856-20.6848-40.448-37.376-46.3872-50.0736-6.144-12.5952-8.8064-35.2256-8.192-67.6864h-107.52l-0.4096 28.16c0 34.816 5.7344 63.3856 17.3056 85.8112 11.4688 22.4256 34.5088 47.7184 69.0176 75.776 34.5088 27.9552 55.1936 46.3872 61.8496 55.0912a73.728 73.728 0 0 1 15.6672 45.3632 76.3904 76.3904 0 0 1-27.648 58.9824c-18.432 16.384-43.2128 24.576-74.4448 24.576-30.1056 0-55.296-8.4992-75.4688-25.6-20.2752-16.9984-37.5808-54.6816-41.7792-77.9264-3.8912-22.016-109.7728-31.232-108.544 13.312 1.2288 44.4416 24.576 92.7744 64.2048 127.8976 39.7312 35.0208 91.9552 52.5312 156.4672 52.5312 67.8912 0 121.9584-17.7152 162.0992-53.248 40.1408-35.4304 60.2112-76.8 60.2112-123.904 0-26.0096-7.3728-50.688-22.016-74.0352z"  horiz-adv-x="1024" />

    
    <glyph glyph-name="lianjie" unicode="&#58954;" d="M512-128C229.228089-128 0 101.228089 0 384S229.228089 896 512 896s512-229.228089 512-512-229.228089-512-512-512z m54.545067 565.020444l-1.797689 1.763556a102.206578 102.206578 0 0 1-11.002311 9.5232l-35.453156-35.441778c4.175644-2.446222 8.078222-5.393067 11.605333-8.920178l1.865956-1.763555a58.276978 58.276978 0 0 0 0-82.340978l-96.904533-96.881778a58.333867 58.333867 0 0 0-82.340978 0l-1.831822 1.797689a58.242844 58.242844 0 0 0 0 82.306845l43.815822 43.8272a149.674667 149.674667 0 0 0-10.865778 58.732089l-67.811555-67.720534c-41.836089-41.824711-41.836089-110.250667 0-152.052622l1.786311-1.797689c41.836089-41.790578 110.227911-41.790578 152.052622 0l96.881778 96.915911c41.756444 41.824711 41.756444 110.250667 0 152.052622zM707.925333 578.389333l-1.820444 1.797689c-41.801956 41.824711-110.227911 41.824711-152.052622 0l-96.881778-96.915911c-41.824711-41.790578-41.824711-110.216533 0-152.052622l1.797689-1.763556c3.504356-3.424711 7.224889-6.576356 11.002311-9.5232l35.453155 35.475911a57.844622 57.844622 0 0 0-11.582577 8.920178l-1.797689 1.763556a58.311111 58.311111 0 0 0 0 82.375111l96.904533 96.881778a58.197333 58.197333 0 0 0 82.284089 0l1.797689-1.797689a58.276978 58.276978 0 0 0 0-82.340978l-43.758933-43.8272c7.611733-18.796089 11.195733-38.8096 10.843022-58.766222l67.7888 67.754666c41.824711 41.790578 41.824711 110.216533 0.022755 152.007112z"  horiz-adv-x="1024" />

    
    </font>
</defs>
</svg>
