<svg class="icon" viewBox="0 0 1024 1024" xmlns="http://www.w3.org/2000/svg" width="15" height="15"><path d="M682.667 356.848H325.818a38.788 38.788 0 0 1-38.788-38.787 38.788 38.788 0 0 1 38.788-38.788h356.849a38.788 38.788 0 0 1 38.788 38.788 38.788 38.788 0 0 1-38.788 38.787z" fill="#54b5db"/><path d="M907.636 1024h-15.515L512 806.788l-380.121 209.454H93.09a62.06 62.06 0 0 1-15.515-31.03V116.364A116.364 116.364 0 0 1 193.939 0h636.122a116.364 116.364 0 0 1 116.363 116.364v868.848a62.06 62.06 0 0 1-15.515 31.03zM512 721.455h23.273l333.575 186.181V116.364a38.788 38.788 0 0 0-38.787-38.788H193.939a38.788 38.788 0 0 0-38.787 38.788v799.03l341.333-186.182z" fill="#54b5db"/></svg>