<?xml version="1.0" standalone="no"?><!DOCTYPE svg PUBLIC "-//W3C//DTD SVG 1.1//EN" "http://www.w3.org/Graphics/SVG/1.1/DTD/svg11.dtd"><svg t="1612518338221" class="icon" viewBox="0 0 1024 1024" version="1.1" xmlns="http://www.w3.org/2000/svg" p-id="61684" width="10" height="10" xmlns:xlink="http://www.w3.org/1999/xlink"><defs><style type="text/css"></style></defs><path d="M767.973975 116.346086c0 64.252734-41.683214 116.38875-93.093935 116.38875S581.786106 180.59882 581.786106 116.346086C581.786106 52.093352 623.46932 0 674.88004 0S767.973975 52.093352 767.973975 116.346086zM256 504.294365s70.823066-284.785523 286.74809-271.047555c215.925024 13.695304 67.239249 261.448043-13.268659 501.649166-80.507908 240.201123 100.26157 71.420369 145.400609-7.551616 0 0-93.136599 406.763323-367.341327 267.67706-128.548132-65.234017 32.25436-398.059765 103.120092-545.593599C481.5672 301.808658 336.635901 387.606963 256 504.251701z" fill="#ffffff" p-id="61685"></path></svg>